<svg id="Layer_1" data-name="Layer 1" xmlns="http://www.w3.org/2000/svg" viewBox="0 0 100 100"><defs><style>.cls-1{fill:none;}.cls-2{fill:#204c9a;}</style></defs><g id="attendance"><rect class="cls-1" width="100" height="100"/><path class="cls-1" d="M-.25,100.25V-.25h100.5v100.5Zm87.45-35c0-.45,0-.74,0-1q0-26.74,0-53.49a4.68,4.68,0,0,0-5-5q-35.2.09-70.43,0a4.73,4.73,0,0,0-5,5c.06,18.26,0,36.51,0,54.77,0,3.29,1.72,5,5,5H57.58c.35,0,.69,0,1.13-.05a7.9,7.9,0,0,1,1.53-5.8A7.62,7.62,0,0,1,65.45,62V58.36H63.21a4.14,4.14,0,0,1-4.32-4.3q0-7.14,0-14.3a4.19,4.19,0,0,1,4.31-4.34q7.15,0,14.3,0a4.26,4.26,0,0,1,4.33,4.36c0,4.77,0,9.54,0,14.3a4.2,4.2,0,0,1-4.28,4.28H75.22v6.2a5.09,5.09,0,0,1,5.4,1C82.71,63.8,84.85,63.76,87.2,65.26Zm-21.65-.32a4.3,4.3,0,0,0-4.07,4.4c0,3.27,0,6.53,0,9.8a12.63,12.63,0,0,0,.28,2.52A15.64,15.64,0,0,0,79.54,94.2c6.34-.82,12.12-6,13-12.38.57-4.23.35-8.58.4-12.88a2,2,0,0,0-2.14-2A2.06,2.06,0,0,0,88.9,69.1c0,1.41,0,2.81,0,4.21a1.37,1.37,0,0,1-1.41,1.53c-.87,0-1.35-.52-1.37-1.53,0-1.38,0-2.75,0-4.12a2,2,0,1,0-4.06,0c0,1.34,0,2.68,0,4,0,1-.55,1.6-1.44,1.59s-1.32-.54-1.34-1.57c0-1.34,0-2.68,0-4a2,2,0,1,0-4.06,0c0,1.37,0,2.74,0,4.11a1.35,1.35,0,0,1-1.38,1.45,1.31,1.31,0,0,1-1.39-1.42c0-.29,0-.59,0-.88V51.39a5.91,5.91,0,0,0-.12-1.26,1.93,1.93,0,0,0-3.66-.35,4,4,0,0,0-.28,1.61c0,8.42,0,16.85,0,25.27,0,1.16-.55,1.84-1.44,1.81s-1.33-.68-1.33-1.81c0-3.56,0-7.12,0-10.68Zm0-9.36c0-1.77,0-3.4,0-5a5,5,0,0,1,4.26-4.76A4.75,4.75,0,0,1,75,49.54,12.26,12.26,0,0,1,75.18,52c0,1.19,0,2.38,0,3.62H77c1.55,0,2-.49,2-2q0-6.61,0-13.22c0-1.63-.48-2.12-2.08-2.12H63.45c-1.14,0-1.77.52-1.77,1.51,0,4.8,0,9.6,0,14.39a1.36,1.36,0,0,0,1.4,1.46C63.85,55.62,64.63,55.58,65.55,55.58Z"/><path class="cls-2" d="M87.2,65.26c-2.35-1.5-4.49-1.46-6.58.3a5.09,5.09,0,0,0-5.4-1v-6.2h2.33a4.2,4.2,0,0,0,4.28-4.28c0-4.76,0-9.53,0-14.3a4.26,4.26,0,0,0-4.33-4.36q-7.14,0-14.3,0a4.19,4.19,0,0,0-4.31,4.34q0,7.16,0,14.3a4.14,4.14,0,0,0,4.32,4.3h2.24V62a7.62,7.62,0,0,0-5.21,2.79,7.9,7.9,0,0,0-1.53,5.8c-.44,0-.78.05-1.13.05H11.83c-3.27,0-5-1.74-5-5,0-18.26,0-36.51,0-54.77a4.73,4.73,0,0,1,5-5q35.22.11,70.43,0a4.68,4.68,0,0,1,5,5q-.06,26.74,0,53.49C87.25,64.52,87.22,64.81,87.2,65.26ZM31.79,22.91c5,0,10,0,15,0A4,4,0,0,0,50.92,19a41.52,41.52,0,0,0,0-4.6,4.08,4.08,0,0,0-4.08-3.83q-15,0-30,0a4.14,4.14,0,0,0-4.12,4.11c0,1.24,0,2.48,0,3.72a4.18,4.18,0,0,0,4.56,4.55C22.07,22.92,26.93,22.91,31.79,22.91ZM31.84,56H29.89a2.82,2.82,0,0,0-3.06,2.85c-.07,1.39-.07,2.8,0,4.2a2.77,2.77,0,0,0,2.74,2.86,42.22,42.22,0,0,0,4.5,0,2.75,2.75,0,0,0,2.7-2.69q.06-2.25,0-4.5A2.79,2.79,0,0,0,34,56C33.27,56,32.56,56,31.84,56Zm0-14.31h-2a2.83,2.83,0,0,0-3.09,2.91c-.06,1.36-.06,2.73,0,4.1a2.78,2.78,0,0,0,2.73,2.88c1.52.06,3.06.06,4.59,0a2.72,2.72,0,0,0,2.63-2.74c0-1.46,0-2.93,0-4.39A2.78,2.78,0,0,0,34,41.67C33.3,41.65,32.58,41.66,31.87,41.66Zm4.91-9.33c0-.69,0-1.37,0-2.06a2.79,2.79,0,0,0-2.88-2.92c-1.34,0-2.68,0-4,0a2.79,2.79,0,0,0-3.05,2.84c-.07,1.4-.07,2.81,0,4.21a2.79,2.79,0,0,0,3,2.84c1.43,0,2.87,0,4.3,0a2.76,2.76,0,0,0,2.66-2.74C36.8,33.77,36.78,33.05,36.78,32.33ZM41.06,46.5c0,.78,0,1.57,0,2.35a2.64,2.64,0,0,0,2.48,2.67,44.32,44.32,0,0,0,4.89,0A2.57,2.57,0,0,0,50.92,49c.07-1.56.07-3.13,0-4.7a2.68,2.68,0,0,0-2.76-2.6c-1.43,0-2.87,0-4.31,0a2.73,2.73,0,0,0-2.8,2.77C41,45.13,41.06,45.81,41.06,46.5ZM17.57,56H15.52a2.77,2.77,0,0,0-2.86,2.83c0,1.4,0,2.81,0,4.21a2.7,2.7,0,0,0,2.61,2.86,38.79,38.79,0,0,0,4.7,0,2.63,2.63,0,0,0,2.56-2.7c.06-1.5.06-3,0-4.51A2.72,2.72,0,0,0,19.73,56C19,56,18.29,56,17.57,56Zm23.49,4.88c0,.72,0,1.44,0,2.16a2.73,2.73,0,0,0,2.71,2.87,42.22,42.22,0,0,0,4.5,0,2.62,2.62,0,0,0,2.64-2.52c.08-1.63.08-3.27,0-4.9A2.66,2.66,0,0,0,48.24,56q-2.2,0-4.41,0a2.77,2.77,0,0,0-2.77,2.81C41.05,59.48,41.06,60.17,41.06,60.85ZM17.67,41.67c-.78,0-1.57,0-2.35,0a2.72,2.72,0,0,0-2.65,2.62c-.05,1.53,0,3.06,0,4.6a2.6,2.6,0,0,0,2.41,2.62,46.15,46.15,0,0,0,5,0A2.54,2.54,0,0,0,22.51,49q.12-2.4,0-4.8a2.65,2.65,0,0,0-2.69-2.56C19.11,41.65,18.39,41.66,17.67,41.67Zm-5-9.41c0,.75,0,1.5,0,2.25a2.67,2.67,0,0,0,2.56,2.7c1.59.06,3.2.06,4.79,0a2.55,2.55,0,0,0,2.49-2.43c.08-1.63.09-3.27,0-4.89a2.62,2.62,0,0,0-2.73-2.52c-1.47,0-2.93,0-4.4,0a2.7,2.7,0,0,0-2.72,2.75C12.64,30.82,12.65,31.54,12.65,32.26Zm33.42-4.9h0c-.81,0-1.63,0-2.44,0a2.66,2.66,0,0,0-2.55,2.5q-.07,2.4,0,4.8a2.59,2.59,0,0,0,2.41,2.52c1.66.08,3.33.08,5,0A2.51,2.51,0,0,0,50.9,34.8a48.86,48.86,0,0,0,0-5,2.62,2.62,0,0,0-2.59-2.45C47.58,27.33,46.82,27.36,46.07,27.36Zm24.21-4.95h9.3a8.62,8.62,0,0,0,.88,0A1.34,1.34,0,0,0,81.82,21a1.3,1.3,0,0,0-1.36-1.38c-6.76,0-13.52,0-20.27,0-.16,0-.39,0-.46.13-.31.42-.79.88-.77,1.31a2,2,0,0,0,.87,1.22,2.11,2.11,0,0,0,1.14.14C64.08,22.42,67.18,22.41,70.28,22.41Zm0-7.74h9.79c1.1,0,1.77-.54,1.76-1.39s-.68-1.39-1.77-1.39H60.67c-1.16,0-1.75.46-1.77,1.35s.54,1.43,1.78,1.43Zm0,12.68h-9.7c-1.18,0-1.73.45-1.72,1.38s.6,1.39,1.73,1.39H80c1.1,0,1.78-.52,1.81-1.36s-.64-1.42-1.82-1.42Z"/><path class="cls-2" d="M65.55,64.94v1c0,3.56,0,7.12,0,10.68,0,1.13.49,1.78,1.33,1.81s1.44-.65,1.44-1.81c0-8.42,0-16.85,0-25.27a4,4,0,0,1,.28-1.61,1.93,1.93,0,0,1,3.66.35,5.91,5.91,0,0,1,.12,1.26V72.54c0,.29,0,.59,0,.88a1.31,1.31,0,0,0,1.39,1.42,1.35,1.35,0,0,0,1.38-1.45c0-1.37,0-2.74,0-4.11a2,2,0,1,1,4.06,0c0,1.34,0,2.68,0,4,0,1,.48,1.55,1.34,1.57S82,74.28,82,73.25c0-1.34,0-2.68,0-4a2,2,0,1,1,4.06,0c0,1.37,0,2.74,0,4.12,0,1,.5,1.53,1.37,1.53a1.37,1.37,0,0,0,1.41-1.53c0-1.4,0-2.8,0-4.21A2.06,2.06,0,0,1,90.78,67a2,2,0,0,1,2.14,2c0,4.3.17,8.65-.4,12.88-.86,6.35-6.64,11.56-13,12.38A15.64,15.64,0,0,1,61.77,81.66a12.63,12.63,0,0,1-.28-2.52c0-3.27,0-6.53,0-9.8A4.3,4.3,0,0,1,65.55,64.94Z"/><path class="cls-2" d="M65.55,55.58c-.92,0-1.7,0-2.47,0a1.36,1.36,0,0,1-1.4-1.46c0-4.79,0-9.59,0-14.39,0-1,.63-1.5,1.77-1.51H77c1.6,0,2.08.49,2.08,2.12q0,6.62,0,13.22c0,1.55-.49,2-2,2H75.18c0-1.24,0-2.43,0-3.62A12.26,12.26,0,0,0,75,49.54a4.75,4.75,0,0,0-5.2-3.74,5,5,0,0,0-4.26,4.76C65.53,52.18,65.55,53.81,65.55,55.58Z"/><path class="cls-1" d="M31.79,22.91c-4.86,0-9.72,0-14.58,0a4.18,4.18,0,0,1-4.56-4.55c0-1.24,0-2.48,0-3.72a4.14,4.14,0,0,1,4.12-4.11q15,0,30.05,0a4.08,4.08,0,0,1,4.08,3.83,41.52,41.52,0,0,1,0,4.6,4,4,0,0,1-4.15,3.94C41.78,22.93,36.78,22.91,31.79,22.91Zm0-2.78H46.41c1.22,0,1.72-.5,1.73-1.71,0-1,0-2,0-3,0-1.65-.43-2.09-2.08-2.09H17.38c-1.44,0-1.94.52-1.95,1.94q0,1.51,0,3c0,1.38.5,1.86,1.9,1.86Z"/><path class="cls-1" d="M31.84,56c.72,0,1.43,0,2.15,0a2.79,2.79,0,0,1,2.78,2.71q.06,2.25,0,4.5a2.75,2.75,0,0,1-2.7,2.69,42.22,42.22,0,0,1-4.5,0A2.77,2.77,0,0,1,26.83,63c-.07-1.4-.07-2.81,0-4.2A2.82,2.82,0,0,1,29.89,56Zm-2.15,7h4.25V58.81H29.69Z"/><path class="cls-1" d="M31.87,41.66c.71,0,1.43,0,2.15,0a2.78,2.78,0,0,1,2.75,2.73c0,1.46,0,2.93,0,4.39a2.72,2.72,0,0,1-2.63,2.74c-1.53.08-3.07.08-4.59,0a2.78,2.78,0,0,1-2.73-2.88c-.06-1.37-.06-2.74,0-4.1a2.83,2.83,0,0,1,3.09-2.91Zm-2.18,7h4.24V44.51H29.69Z"/><path class="cls-1" d="M36.78,32.33c0,.72,0,1.44,0,2.15a2.76,2.76,0,0,1-2.66,2.74c-1.43.06-2.87.05-4.3,0a2.79,2.79,0,0,1-3-2.84c-.07-1.4-.07-2.81,0-4.21a2.79,2.79,0,0,1,3.05-2.84c1.34,0,2.68,0,4,0a2.79,2.79,0,0,1,2.88,2.92C36.79,31,36.78,31.64,36.78,32.33ZM34,30.21H29.7v4.16H34Z"/><path class="cls-1" d="M41.06,46.5c0-.69,0-1.37,0-2.06a2.73,2.73,0,0,1,2.8-2.77c1.44,0,2.88,0,4.31,0a2.68,2.68,0,0,1,2.76,2.6c.06,1.57.06,3.14,0,4.7a2.57,2.57,0,0,1-2.48,2.55,44.32,44.32,0,0,1-4.89,0,2.64,2.64,0,0,1-2.48-2.67C41,48.07,41.06,47.28,41.06,46.5Zm7-2H43.9v4.18h4.2Z"/><path class="cls-1" d="M17.57,56c.72,0,1.44,0,2.16,0a2.72,2.72,0,0,1,2.8,2.67c.06,1.5.06,3,0,4.51A2.63,2.63,0,0,1,20,65.86a38.79,38.79,0,0,1-4.7,0A2.7,2.7,0,0,1,12.66,63c0-1.4,0-2.81,0-4.21A2.77,2.77,0,0,1,15.52,56Zm-2.08,2.81V63h4.17V58.78Z"/><path class="cls-1" d="M41.06,60.85c0-.68,0-1.37,0-2.06A2.77,2.77,0,0,1,43.83,56q2.2,0,4.41,0a2.66,2.66,0,0,1,2.67,2.48c.08,1.63.08,3.27,0,4.9a2.62,2.62,0,0,1-2.64,2.52,42.22,42.22,0,0,1-4.5,0A2.73,2.73,0,0,1,41.06,63C41.05,62.29,41.06,61.57,41.06,60.85Zm7-2H43.89V63H48.1Z"/><path class="cls-1" d="M17.67,41.67c.72,0,1.44,0,2.15,0a2.65,2.65,0,0,1,2.69,2.56q.12,2.4,0,4.8a2.54,2.54,0,0,1-2.44,2.48,46.15,46.15,0,0,1-5,0,2.6,2.6,0,0,1-2.41-2.62c0-1.54-.05-3.07,0-4.6a2.72,2.72,0,0,1,2.65-2.62C16.1,41.64,16.89,41.67,17.67,41.67Zm2,2.84H15.48v4.18H19.7Z"/><path class="cls-1" d="M12.65,32.26c0-.72,0-1.44,0-2.15a2.7,2.7,0,0,1,2.72-2.75c1.47,0,2.93,0,4.4,0a2.62,2.62,0,0,1,2.73,2.52c.08,1.62.07,3.26,0,4.89A2.55,2.55,0,0,1,20,37.2c-1.59.07-3.2.07-4.79,0a2.67,2.67,0,0,1-2.56-2.7C12.63,33.76,12.65,33,12.65,32.26Zm7,2.14V30.18H15.49V34.4Z"/><path class="cls-1" d="M46.07,27.36c.75,0,1.51,0,2.25,0a2.62,2.62,0,0,1,2.59,2.45,48.86,48.86,0,0,1,0,5,2.51,2.51,0,0,1-2.42,2.39c-1.66.08-3.33.08-5,0a2.59,2.59,0,0,1-2.41-2.52q-.07-2.4,0-4.8a2.66,2.66,0,0,1,2.55-2.5c.81,0,1.63,0,2.44,0Zm2,2.85H43.89v4.16h4.22Z"/><path class="cls-1" d="M70.28,22.41c-3.1,0-6.2,0-9.31,0a2.11,2.11,0,0,1-1.14-.14A2,2,0,0,1,59,21.05c0-.43.46-.89.77-1.31.07-.1.3-.13.46-.13,6.75,0,13.51,0,20.27,0A1.3,1.3,0,0,1,81.82,21a1.34,1.34,0,0,1-1.36,1.39,8.62,8.62,0,0,1-.88,0Z"/><path class="cls-1" d="M70.28,14.67h-9.6c-1.24,0-1.81-.47-1.78-1.43s.61-1.35,1.77-1.35H80.06c1.09,0,1.77.55,1.77,1.39s-.66,1.39-1.76,1.39Z"/><path class="cls-1" d="M70.32,27.35H80c1.18,0,1.86.54,1.82,1.42s-.71,1.35-1.81,1.36H60.63c-1.13,0-1.73-.49-1.73-1.39s.54-1.38,1.72-1.38Z"/><path class="cls-2" d="M31.82,20.13H17.33c-1.4,0-1.89-.48-1.9-1.86q0-1.52,0-3c0-1.42.51-1.93,1.95-1.94H46.07c1.65,0,2.07.44,2.08,2.09,0,1,0,2,0,3,0,1.21-.51,1.71-1.73,1.71Z"/><path class="cls-2" d="M29.69,63V58.81h4.25V63Z"/><path class="cls-2" d="M29.69,48.7V44.51h4.24V48.7Z"/><path class="cls-2" d="M34,30.21v4.16H29.7V30.21Z"/><path class="cls-2" d="M48.1,44.5v4.18H43.9V44.5Z"/><path class="cls-2" d="M15.49,58.78h4.17V63H15.49Z"/><path class="cls-2" d="M48.1,58.82V63H43.89v-4.2Z"/><path class="cls-2" d="M19.7,44.51v4.18H15.48V44.51Z"/><path class="cls-2" d="M19.66,34.4H15.49V30.18h4.17Z"/><path class="cls-2" d="M48.11,30.21v4.16H43.89V30.21Z"/></g></svg>