<svg width="94" height="79" viewBox="0 0 94 79" fill="none" xmlns="http://www.w3.org/2000/svg">
<path d="M8.56672 12.014C7.70836 14.7947 9.14415 17.7661 11.8562 18.8216C9.07545 17.9632 6.10404 19.399 5.04854 22.111C5.9069 19.3303 4.47112 16.3589 1.7591 15.3034C4.53981 16.1618 7.51122 14.726 8.56672 12.014Z" fill="#D9D6FE"/>
<path d="M6.80001 53.9288C7.47783 55.7466 9.44487 56.7319 11.3066 56.1861C9.48878 56.8639 8.50351 58.831 9.04928 60.6927C8.37145 58.8749 6.40441 57.8896 4.54271 58.4354C6.3605 57.7576 7.34577 55.7905 6.80001 53.9288Z" fill="#D9D6FE"/>
<path d="M45.6275 2.25253C45.4006 4.17927 46.7008 5.95395 48.6063 6.31841C46.6796 6.0915 44.9049 7.39168 44.5404 9.29719C44.7674 7.37046 43.4672 5.59577 41.5617 5.23131C43.4884 5.45822 45.2631 4.15804 45.6275 2.25253Z" fill="#D9D6FE"/>
<path d="M4.59066 38.8813C4.29422 39.8024 4.7598 40.7961 5.65732 41.1578C4.73618 40.8614 3.74252 41.327 3.38081 42.2245C3.67724 41.3033 3.21166 40.3097 2.31414 39.948C3.23528 40.2444 4.22895 39.7788 4.59066 38.8813Z" fill="#D9D6FE"/>
<path d="M42.1909 49.3139C41.8944 50.2351 42.36 51.2287 43.2575 51.5904C42.3364 51.294 41.3427 51.7596 40.981 52.6571C41.2775 51.7359 40.8119 50.7423 39.9144 50.3806C40.8355 50.677 41.8292 50.2114 42.1909 49.3139Z" fill="#D9D6FE"/>
<path d="M37.9181 12.5688C37.6216 13.4899 38.0872 14.4836 38.9847 14.8453C38.0636 14.5489 37.0699 15.0145 36.7082 15.912C37.0046 14.9908 36.5391 13.9972 35.6415 13.6355C36.5627 13.9319 37.5563 13.4663 37.9181 12.5688Z" fill="#D9D6FE"/>
<g clip-path="url(#clip0_24_8668)">
<path d="M27.015 43.275C27.015 43.275 27.3531 42.3394 28.0214 40.4306C28.6503 38.6255 30.2588 33.9524 30.1283 31.6678C29.7871 25.6629 23.5826 21.2698 21.0228 15.018C19.6202 11.595 20.1863 10.5289 19.3513 10.2632C18.5164 9.99748 16.3403 15.9599 19.2822 20.9962C19.2822 20.9962 16.5777 20.6062 16.1909 21.3861C15.8041 22.166 17.4566 23.7871 18.845 24.4035C18.845 24.4035 15.5101 25.4491 15.3858 26.6048C15.2616 27.7605 18.0353 28.6787 19.3168 28.7731C19.3168 28.7731 17.2601 29.6851 17.3167 30.586C17.4016 31.9728 20.4473 31.9713 20.4473 31.9713C20.4473 31.9713 19.1218 32.6458 19.3466 33.2952C19.6454 34.1789 22.0354 34.3424 22.0354 34.3424C22.0354 34.3424 21.257 36.7465 24.3027 37.1318C24.3027 37.1318 23.9159 39.0501 26.2823 39.1145C26.2823 39.1145 26.7415 40.2152 26.6062 41.1397C26.471 42.0643 26.6471 43.1712 27.015 43.275Z" fill="#EBEBEB"/>
<path d="M27.3075 40.6319C27.313 40.4097 27.2628 40.1897 27.1613 39.992C26.894 39.3834 26.6896 38.6271 27.3059 37.9762V38.0878C26.5197 37.7529 26.1722 36.9023 26.8877 35.9431C27.0691 35.6974 27.2739 35.4699 27.4993 35.2639L27.5496 35.4824C24.5732 35.9274 24.7524 34.539 27.2242 32.6978L27.2823 32.9981C24.1376 33.6569 23.2256 33.0264 26.2399 30.0986L26.3012 30.3911C26.0793 30.4049 25.8568 30.3821 25.6424 30.3235C24.3043 29.965 24.5842 28.4524 25.004 27.108C25.3012 26.1394 25.2556 25.152 24.8059 24.4271C24.369 23.731 23.7618 23.1579 23.0417 22.762C22.6939 22.5556 22.3287 22.3799 21.9504 22.2368C22.3408 22.3501 22.719 22.5018 23.0794 22.6897C24.5936 23.4585 25.8845 24.8202 25.2367 27.1394C25.048 27.8675 24.8232 28.5955 24.9788 29.2558C25.1439 29.8848 25.765 30.0813 26.3342 30.053L26.7194 30.0326L26.405 30.3471C26.0685 30.6615 24.4631 32.2811 24.732 32.7056C25.2037 33.1003 26.6392 32.8031 27.2886 32.6773L27.9396 32.5374C27.3641 32.9776 25.7383 34.0893 25.6141 34.8582C25.6675 35.4368 27.133 35.2874 27.5701 35.2387L27.9144 35.1947C27.4349 35.6271 26.8138 36.1271 26.6833 36.8221C26.5936 37.4211 27.0481 37.8095 27.4506 38.0013C26.7792 38.6303 26.9631 39.319 27.1974 39.9747C27.2874 40.1836 27.3257 40.4113 27.3091 40.6382L27.3075 40.6319Z" fill="#C7C7C7"/>
<path d="M23.9867 29.4414C23.6819 29.7345 23.3947 30.0453 23.1266 30.3722C22.9159 30.6537 22.6643 30.9587 22.6124 31.3157C22.581 32.149 23.6345 32.3471 24.2068 32.4242L24.3641 32.4399C24.1082 32.7464 23.8853 33.0789 23.6989 33.4321C23.0275 34.6978 24.6974 34.5799 25.3436 34.5139L25.177 34.712C24.8704 35.0768 24.3452 35.8724 24.7807 36.1664C25.2021 36.3913 25.765 36.3614 26.2635 36.3378H26.3672C26.026 36.7199 25.8248 37.3237 26.0764 37.7199C26.1417 37.84 26.2292 37.9467 26.3342 38.0344C25.8138 37.7105 25.7697 37.0013 26.2273 36.374L26.254 36.4636C25.7399 36.506 24.8625 36.6208 24.5244 36.19C24.2666 35.6884 24.7068 35.0233 25.0512 34.5878L25.1031 34.7654C24.6753 34.8278 24.239 34.7934 23.8263 34.6648C22.8499 34.3142 23.548 33.1805 24.1141 32.4792L24.1502 32.6522C23.504 32.5547 22.408 32.2984 22.4788 31.3424C22.6077 30.6474 23.4898 29.8895 23.9788 29.4556L23.9867 29.4414Z" fill="#C7C7C7"/>
<path d="M29.2997 34.2702C29.9286 32.3063 29.589 30.1522 28.8846 28.2512C28.2006 26.5797 27.1157 25.1064 26.1046 23.6268C25.1345 22.273 23.7335 20.3485 22.8105 18.9899C21.7759 17.4176 20.702 15.8279 20.2193 13.9851C20.3121 14.9285 20.6501 15.8546 21.0385 16.7273C21.8341 18.4695 22.886 20.0764 23.9552 21.6551C25.0244 23.2338 26.1565 24.7448 27.2006 26.3234C27.7327 27.0891 28.1837 27.908 28.5465 28.7669C29.2431 30.4965 29.6283 32.4132 29.2997 34.2702Z" fill="white"/>
<path d="M23.1628 36.5515C23.1628 36.5515 20.9505 30.435 26.8406 27.3044C32.7306 24.1739 36.2747 29.7636 36.2747 29.7636C36.2747 29.7636 31.4319 34.7166 23.1628 36.5515Z" fill="white"/>
<path d="M23.1644 36.5516C31.4319 34.7166 36.2732 29.7637 36.2732 29.7637C36.2732 29.7637 28.817 31.097 23.1644 36.5516Z" fill="white"/>
<path d="M27.4066 28.3988C27.3299 28.4408 27.2456 28.4672 27.1586 28.4765C27.0716 28.4857 26.9836 28.4777 26.8998 28.4529C26.8159 28.428 26.7377 28.3869 26.6698 28.3317C26.6019 28.2765 26.5456 28.2085 26.5041 28.1315L26.0528 27.2997C25.9689 27.1445 25.9499 26.9624 26 26.7932C26.0501 26.624 26.1652 26.4816 26.3201 26.3972C26.4753 26.3132 26.6574 26.2942 26.8266 26.3443C26.9958 26.3944 27.1382 26.5096 27.2227 26.6645L27.6739 27.4963C27.7579 27.6515 27.7769 27.8336 27.7268 28.0028C27.6767 28.1719 27.5615 28.3144 27.4066 28.3988Z" fill="white"/>
<path opacity="0.4" d="M27.4066 28.3988C27.3299 28.4408 27.2456 28.4672 27.1586 28.4765C27.0716 28.4857 26.9836 28.4777 26.8998 28.4529C26.8159 28.428 26.7377 28.3869 26.6698 28.3317C26.6019 28.2765 26.5456 28.2085 26.5041 28.1315L26.0528 27.2997C25.9689 27.1445 25.9499 26.9624 26 26.7932C26.0501 26.624 26.1652 26.4816 26.3201 26.3972C26.4753 26.3132 26.6574 26.2942 26.8266 26.3443C26.9958 26.3944 27.1382 26.5096 27.2227 26.6645L27.6739 27.4963C27.7579 27.6515 27.7769 27.8336 27.7268 28.0028C27.6767 28.1719 27.5615 28.3144 27.4066 28.3988Z" fill="white"/>
<path opacity="0.2" d="M23.1644 36.5516C31.4319 34.7166 36.2732 29.7637 36.2732 29.7637C36.2732 29.7637 28.817 31.097 23.1644 36.5516Z" fill="black"/>
<path d="M30.365 34.8955L30.6251 34.7536C30.7466 34.6874 30.8368 34.5756 30.8758 34.4428C30.9148 34.3101 30.8995 34.1673 30.8333 34.0458L29.1963 31.0446L28.0243 31.6839L29.6613 34.6851C29.7272 34.8058 29.8381 34.8957 29.9698 34.9351C30.1016 34.9745 30.2436 34.9603 30.365 34.8955Z" fill="white"/>
<path opacity="0.3" d="M30.365 34.8955L30.6251 34.7536C30.7466 34.6874 30.8368 34.5756 30.8758 34.4428C30.9148 34.3101 30.8995 34.1673 30.8333 34.0458L29.1963 31.0446L28.0243 31.6839L29.6613 34.6851C29.7272 34.8058 29.8381 34.8957 29.9698 34.9351C30.1016 34.9745 30.2436 34.9603 30.365 34.8955Z" fill="black"/>
<path d="M23.1644 36.5517C28.817 31.0971 36.2732 29.7638 36.2732 29.7638C36.2732 29.7638 32.7291 24.1724 26.839 27.3046C20.9489 30.4367 23.1644 36.5517 23.1644 36.5517Z" fill="white"/>
<path opacity="0.4" d="M23.1644 36.5517C28.817 31.0971 36.2732 29.7638 36.2732 29.7638C36.2732 29.7638 32.7291 24.1724 26.839 27.3046C20.9489 30.4367 23.1644 36.5517 23.1644 36.5517Z" fill="white"/>
<g opacity="0.3">
<path d="M28.2431 26.7006C30.5545 27.045 32.4398 29.1378 33.4524 30.5262C34.0562 30.3265 34.586 30.1724 35.0247 30.0545C31.9759 26.0182 28.4365 26.6613 28.2636 26.6959L28.2431 26.7006Z" fill="white"/>
<path d="M27.7305 26.8877C29.542 27.8559 31.0879 29.2544 32.2322 30.9601C32.4193 30.8878 32.6033 30.8218 32.7825 30.7573C30.5466 27.7399 27.7305 26.8877 27.7305 26.8877Z" fill="white"/>
</g>
<path opacity="0.1" d="M23.1644 36.5499C25.6802 34.1221 28.5607 32.5073 30.9743 31.4664C29.3784 32.1158 25.2367 33.6677 24.3279 32.8815C23.5417 32.2007 24.2745 29.4915 25.644 28.0623C21.2697 31.3139 23.1644 36.5499 23.1644 36.5499Z" fill="black"/>
<path d="M54.6526 53.6275C54.0607 55.5758 53.0894 57.3879 51.7945 58.9594C50.4995 60.5309 48.9066 61.8308 47.1073 62.7842C45.308 63.7376 43.3379 64.3257 41.3105 64.5148C39.283 64.7038 37.2381 64.49 35.2936 63.8856L30.2778 62.3604L40.2654 33.1301L43.5092 34.1097C43.7671 34.1737 44.026 34.2455 44.286 34.3251C46.2377 34.9062 48.0552 35.8675 49.6339 37.1537C51.2126 38.4399 52.5214 40.0257 53.4849 41.8197C54.4483 43.6137 55.0475 45.5805 55.2479 47.6069C55.4483 49.6334 55.246 51.6795 54.6526 53.6275Z" fill="white"/>
<path opacity="0.2" d="M54.6526 53.6275C54.0607 55.5758 53.0894 57.3879 51.7945 58.9594C50.4995 60.5309 48.9066 61.8308 47.1073 62.7842C45.308 63.7376 43.3379 64.3257 41.3105 64.5148C39.283 64.7038 37.2381 64.49 35.2936 63.8856L30.2778 62.3604L40.2654 33.1301L43.5092 34.1097C43.7671 34.1737 44.026 34.2455 44.286 34.3251C46.2377 34.9062 48.0552 35.8675 49.6339 37.1537C51.2126 38.4399 52.5214 40.0257 53.4849 41.8197C54.4483 43.6137 55.0475 45.5805 55.2479 47.6069C55.4483 49.6334 55.246 51.6795 54.6526 53.6275Z" fill="black"/>
<g opacity="0.05">
<path d="M31.7919 57.9389L44.1412 63.9784C45.7025 63.5322 47.1836 62.8424 48.5297 61.9343L33.0183 54.3477L31.7919 57.9389Z" fill="black"/>
<path d="M33.3485 53.3728L49.459 61.2519C49.7829 60.9972 50.0973 60.7288 50.4024 60.4468L33.7196 52.2878L33.3485 53.3728Z" fill="black"/>
</g>
<path d="M30.4214 62.4188C23.0416 59.583 19.5456 50.8135 22.6128 42.8314C25.68 34.8494 34.149 30.6775 41.5287 33.5133C48.9085 36.3491 52.4045 45.1187 49.3373 53.1007C46.27 61.0827 37.8011 65.2546 30.4214 62.4188Z" fill="white"/>
<path opacity="0.1" d="M29.6214 61.7945C22.7616 59.1599 19.5721 50.8494 22.4975 43.2324C25.4229 35.6155 33.3554 31.5765 40.2152 34.2111C47.075 36.8457 50.2645 45.1562 47.3391 52.7732C44.4137 60.3901 36.4812 64.4291 29.6214 61.7945Z" fill="black"/>
<path d="M29.9563 60.9209C23.5302 58.4529 20.5424 50.6678 23.2828 43.5323C26.0233 36.3969 33.4543 32.6132 39.8804 35.0813C46.3065 37.5493 49.2943 45.3345 46.5538 52.4699C43.8133 59.6053 36.3824 63.389 29.9563 60.9209Z" fill="white"/>
<path opacity="0.5" d="M24.015 41.8992C28.394 47.088 35.5923 55.5992 39.6348 60.2959C41.4845 59.3418 43.1014 57.9922 44.3708 56.3429L32.8281 34.7009C29.1975 35.6333 25.9333 38.2325 24.015 41.8992Z" fill="#EBEBEB"/>
<path opacity="0.5" d="M22.7729 45.1006C22.3779 46.5759 22.2119 48.1032 22.2807 49.629L34.9288 61.6371C35.6582 61.5806 36.3808 61.4575 37.0877 61.2692C33.4241 57.1182 26.7226 49.5535 22.7729 45.1006Z" fill="#EBEBEB"/>
<path d="M38.3707 36.031L38.0043 37.2606L38.1175 37.2905L38.2292 37.3235L38.5971 36.0939L38.3707 36.031Z" fill="#263238"/>
<path d="M42.4619 39.9918C42.5154 40.05 42.5689 40.1098 42.6192 40.1711L43.4934 39.2623L43.3362 39.083L42.4619 39.9918Z" fill="#263238"/>
<path d="M44.8992 44.871C44.9165 44.9527 44.9322 45.0282 44.9479 45.1178L46.1004 44.7735L46.0517 44.5266L44.8992 44.871Z" fill="#263238"/>
<path d="M44.624 50.7106C44.6114 50.7531 44.5989 50.794 44.5847 50.8349L45.6995 51.1493L45.775 50.9009L44.6602 50.5864C44.6476 50.6273 44.635 50.6698 44.624 50.7106Z" fill="#263238"/>
<path d="M41.6349 55.7941L42.421 56.6777L42.5971 56.4938L41.811 55.6101L41.6349 55.7941Z" fill="#263238"/>
<path d="M36.8816 58.6621L37.1206 59.8806L37.3534 59.8115L37.1144 58.5913C37.0373 58.618 36.9603 58.64 36.8816 58.6621Z" fill="#263238"/>
<path d="M31.6048 58.6731L31.2369 59.9027L31.4618 59.9656L31.8297 58.736L31.7165 58.7045L31.6048 58.6731Z" fill="#263238"/>
<path d="M26.3374 56.7298L26.4946 56.909L27.3704 56.0002C27.317 55.942 27.2635 55.8823 27.2132 55.8225L26.3374 56.7298Z" fill="#263238"/>
<path d="M23.7382 51.2201L23.7854 51.4669L24.9332 51.1226C24.9159 51.0408 24.9002 50.9654 24.8861 50.8757L23.7382 51.2201Z" fill="#263238"/>
<path d="M24.1329 44.8457L24.059 45.0941L25.1738 45.4086C25.1864 45.3662 25.1974 45.3253 25.21 45.2844L25.2477 45.1602L24.1329 44.8457Z" fill="#263238"/>
<path d="M27.232 39.4996L28.0182 40.3833C28.0764 40.3204 28.1346 40.2607 28.1959 40.1993L27.4097 39.3157L27.232 39.4996Z" fill="#263238"/>
<path d="M32.479 36.1883L32.718 37.4101C32.7967 37.3833 32.8753 37.3613 32.9508 37.3393L32.7118 36.1191L32.479 36.1883Z" fill="#263238"/>
<path d="M32.5828 36.7341L34.498 49.0583L35.671 48.6982L32.902 36.635L32.5828 36.7341Z" fill="#37474F"/>
<path d="M41.3267 41.4512L33.891 48.129L34.6835 49.041L41.5421 41.698L41.3267 41.4512Z" fill="#455A64"/>
<path d="M34.5278 47.8884C34.5093 47.9408 34.5013 47.9964 34.5044 48.0519C34.5075 48.1074 34.5216 48.1618 34.5459 48.2118C34.5702 48.2618 34.6042 48.3066 34.6459 48.3433C34.6876 48.3801 34.7362 48.4083 34.7889 48.4261C34.899 48.4506 35.0144 48.4315 35.1108 48.3729C35.2072 48.3143 35.2772 48.2207 35.3062 48.1116C35.325 48.0592 35.3331 48.0036 35.3301 47.948C35.3271 47.8924 35.313 47.838 35.2887 47.7879C35.2644 47.7378 35.2303 47.6931 35.1885 47.6563C35.1467 47.6196 35.098 47.5916 35.0452 47.5739C34.935 47.5494 34.8197 47.5685 34.7233 47.6271C34.6268 47.6857 34.5568 47.7793 34.5278 47.8884Z" fill="#C7C7C7"/>
<path d="M34.7527 47.5659C34.6419 47.625 34.556 47.7221 34.511 47.8393C34.4659 47.9566 34.4647 48.0862 34.5074 48.2043C34.5268 48.2595 34.5579 48.3099 34.5986 48.3519C34.6393 48.3939 34.6886 48.4266 34.7432 48.4477C34.7978 48.4687 34.8563 48.4777 34.9147 48.474C34.973 48.4702 35.0299 48.4539 35.0813 48.426C35.1922 48.3669 35.278 48.2698 35.3231 48.1526C35.3681 48.0353 35.3694 47.9057 35.3266 47.7876C35.3073 47.7324 35.2762 47.682 35.2355 47.64C35.1948 47.598 35.1454 47.5653 35.0909 47.5442C35.0363 47.5232 34.9778 47.5142 34.9194 47.5179C34.861 47.5217 34.8042 47.538 34.7527 47.5659Z" fill="white"/>
<path d="M34.847 47.8127L26.6739 52.0974L26.7226 52.2248L34.987 48.1807L34.847 47.8127Z" fill="white"/>
<path d="M52.3302 38.1309L51.4035 36.8997L49.3483 38.4468C49.238 38.5298 49.1652 38.6532 49.146 38.7899C49.1267 38.9266 49.1625 39.0653 49.2455 39.1756L49.5462 39.5751C49.6292 39.6853 49.7526 39.7581 49.8893 39.7774C50.026 39.7967 50.1647 39.7609 50.275 39.6779L52.3302 38.1309Z" fill="white"/>
<path opacity="0.3" d="M52.3302 38.1309L51.4035 36.8997L49.3483 38.4468C49.238 38.5298 49.1652 38.6532 49.146 38.7899C49.1267 38.9266 49.1625 39.0653 49.2455 39.1756L49.5462 39.5751C49.6292 39.6853 49.7526 39.7581 49.8893 39.7774C50.026 39.7967 50.1647 39.7609 50.275 39.6779L52.3302 38.1309Z" fill="black"/>
<path d="M56.412 44.6791C56.412 44.6791 61.6841 39.3032 56.9874 33.1757C52.2908 27.0482 45.8724 31.2291 45.8724 31.2291C45.8724 31.2291 49.5706 39.1758 56.412 44.6791Z" fill="white"/>
<path opacity="0.4" d="M56.412 44.6791C56.412 44.6791 61.6841 39.3032 56.9874 33.1757C52.2908 27.0482 45.8724 31.2291 45.8724 31.2291C45.8724 31.2291 49.5706 39.1758 56.412 44.6791Z" fill="white"/>
<g opacity="0.3">
<path d="M54.0487 42.58C54.467 42.9888 54.9009 43.3945 55.3506 43.7892C59.5033 38.4652 57.651 34.1978 57.5803 34.0405C57.7218 37.5736 55.2091 41.1319 54.0487 42.58Z" fill="white"/>
<path d="M52.9874 41.4935C53.1446 41.6696 53.3191 41.8441 53.4905 42.0218C53.5188 41.9872 53.5471 41.951 53.577 41.9164C56.912 37.8535 57.2359 33.52 57.2359 33.52C56.2217 37.7167 54.0471 40.3897 52.9874 41.4935Z" fill="white"/>
</g>
<path opacity="0.1" d="M45.8709 31.2369C47.4797 34.4575 49.4791 37.4677 51.8238 40.1994C49.6052 37.1773 47.937 33.4131 48.4102 32.0137C48.6414 31.3266 49.5329 30.0498 53.3993 30.3438C49.5596 28.8296 45.8709 31.2369 45.8709 31.2369Z" fill="black"/>
<path d="M57.941 32.4331L58.0034 32.516C58.2421 32.8331 58.1785 33.2836 57.8615 33.5222L56.9029 34.2437C56.5859 34.4824 56.1354 34.4189 55.8967 34.1018L55.8343 34.0189C55.5956 33.7018 55.6592 33.2513 55.9762 33.0126L56.9347 32.2911C57.2518 32.0524 57.7023 32.116 57.941 32.4331Z" fill="white"/>
<path opacity="0.4" d="M57.941 32.4331L58.0034 32.516C58.2421 32.8331 58.1785 33.2836 57.8615 33.5222L56.9029 34.2437C56.5859 34.4824 56.1354 34.4189 55.8967 34.1018L55.8343 34.0189C55.5956 33.7018 55.6592 33.2513 55.9762 33.0126L56.9347 32.2911C57.2518 32.0524 57.7023 32.116 57.941 32.4331Z" fill="white"/>
<path d="M51.077 52.0111C51.077 52.0111 51.3584 50.9796 51.9559 48.89C52.522 46.9119 54.0173 41.8143 55.8113 39.8882C60.5284 34.8268 70.8903 34.8252 78.359 30.9257C82.4472 28.7904 82.5588 27.5027 83.7192 27.7889C84.8796 28.075 83.117 34.6601 76.0791 37.2529C76.0791 37.2529 79.5006 38.5926 79.3811 39.5155C79.2616 40.4385 76.186 40.8395 74.1294 40.5171C74.1294 40.5171 77.249 43.5046 76.554 44.6053C75.859 45.7059 71.9847 44.7798 70.4375 44.0707C70.4375 44.0707 72.1671 46.1493 71.4564 46.9009C70.3557 48.0645 66.8242 46.1714 66.8242 46.1714C66.8242 46.1714 67.8761 47.5865 67.156 48.022C66.1748 48.6117 63.2832 47.272 63.2832 47.272C63.2832 47.272 62.4546 49.857 58.6385 48.3019C58.6385 48.3019 57.7092 50.2265 54.9135 48.8129C54.9135 48.8129 53.5912 49.4922 53.0817 50.3853C52.5723 51.2784 51.5801 52.1495 51.077 52.0111Z" fill="#EBEBEB"/>
<path d="M52.1824 49.2641C52.3223 49.0329 52.5865 48.9229 52.8113 48.7924C53.5582 48.4244 54.3365 47.8851 54.0944 46.9323L54.0047 47.0282C55.1667 47.2263 56.1746 46.6917 56.0331 45.4039C55.9978 45.071 55.924 44.7433 55.813 44.4275L55.596 44.5847C58.7313 46.8238 59.5269 45.4935 57.9765 42.3425L57.6919 42.5689C60.8728 45.102 62.3823 45.113 60.9939 40.6711L60.7124 40.8897C60.9668 41.0418 61.2401 41.1597 61.5254 41.2403C63.3367 41.7545 64.1009 40.2544 64.5805 38.8126C64.7441 38.2997 65.0238 37.8315 65.398 37.4445C65.7722 37.0575 66.2307 36.7621 66.7377 36.5814C67.7676 36.2072 68.895 36.1443 69.9847 36.215C70.537 36.252 71.0864 36.3245 71.6294 36.432C71.0923 36.2893 70.5451 36.1879 69.9925 36.1285C67.6812 35.8644 65.2047 36.2575 64.288 38.6946C63.9735 39.4525 63.722 40.2308 63.0647 40.7136C62.42 41.1633 61.5552 40.9494 60.9169 40.5705L60.4845 40.3142L60.6417 40.7859C60.7989 41.278 61.5033 43.69 60.8901 43.8929C60.0631 43.9495 58.6071 42.7922 57.9404 42.2796L57.2863 41.7513C57.6369 42.495 58.725 44.4809 58.3162 45.2325C57.8445 45.7042 56.2454 44.6665 55.7737 44.3536L55.4057 44.1004C55.6494 44.7781 56.0111 45.6036 55.6636 46.2939C55.3365 46.8741 54.5283 46.9338 53.9246 46.8536C54.2548 47.8175 53.5425 48.3128 52.7987 48.7405C52.5786 48.8836 52.327 49.0125 52.1918 49.2515L52.1824 49.2641Z" fill="#C7C7C7"/>
<path d="M64.0867 41.5029C64.2295 41.9449 64.3393 42.3969 64.4154 42.8552C64.4578 43.2325 64.5301 43.6571 64.3367 43.9983C63.7754 44.7483 62.409 44.2687 61.6889 43.981L61.4923 43.8961C61.5689 44.3198 61.5884 44.7518 61.5505 45.1807C61.4216 46.709 59.5678 45.5691 58.8649 45.1084L58.9152 45.3867C59.0096 45.8961 59.0457 46.9213 58.3287 46.9071C57.6778 46.8443 57.0473 46.4685 56.4844 46.1383L56.368 46.0675C56.4906 46.6163 56.2894 47.2704 55.7123 47.4638C55.5452 47.5253 55.3697 47.5614 55.1919 47.5707C56.0284 47.6116 56.5897 47.0141 56.5111 46.1807L56.4152 46.242C56.9812 46.599 57.9231 47.2389 58.6165 47.0722C59.2785 46.7924 59.2454 45.9339 59.159 45.3426L58.9703 45.4669C59.44 45.7958 59.9668 46.0347 60.5238 46.1713C61.909 46.4716 61.9169 45.0423 61.7628 44.0737L61.5961 44.2043C62.4153 44.5187 63.8729 44.9763 64.4783 44.0926C64.8289 43.4023 64.3493 42.1885 64.0915 41.5076L64.0867 41.5029Z" fill="#C7C7C7"/>
<path opacity="0.1" d="M51.077 52.0094C51.5801 52.1493 52.577 51.2877 53.088 50.3914C53.599 49.4952 54.9198 48.8191 54.9198 48.8191C57.7155 50.2342 58.6448 48.308 58.6448 48.308C62.4609 49.8631 63.2895 47.2781 63.2895 47.2781C61.6495 48.8332 58.6463 47.6036 58.6463 47.6036C56.8365 49.4574 54.9293 48.275 54.9293 48.275C54.5188 48.334 54.1049 48.3655 53.6902 48.3694C53.1604 48.3615 54.0849 45.3599 54.9183 43.0799C55.7044 40.9258 58.6322 37.726 59.9608 37.0483H59.9482C58.3319 37.7936 56.9183 38.7025 55.8129 39.888C54.0173 41.8126 52.5204 46.9134 51.9559 48.8898C51.3584 50.9795 51.077 52.0094 51.077 52.0094Z" fill="black"/>
<path d="M75.8087 36.7403C78.889 35.7765 81.8246 33.5862 83.1186 30.5594C83.3326 30.054 83.4908 29.5267 83.5903 28.987C83.6235 28.8639 83.6235 28.7343 83.5903 28.6112C83.4724 28.3329 83.1422 28.5263 82.9803 28.6489C82.7614 28.8104 82.5514 28.9836 82.3513 29.1678C82.5919 29.0452 82.823 28.91 83.0667 28.7999C83.1634 28.7462 83.2709 28.715 83.3812 28.7087C83.3812 28.7087 83.3482 28.6914 83.3513 28.693C83.3409 28.7681 83.3208 28.8416 83.2916 28.9115C82.095 32.4745 78.9629 34.8991 75.8087 36.7403Z" fill="white"/>
<path d="M78.7647 39.0468C78.1169 39.5185 77.2552 39.5059 76.4863 39.6207C75.7568 39.7009 74.7457 39.7607 74.0366 39.9352C75.2542 40.3882 76.5946 40.3854 77.8103 39.9273C78.1955 39.7434 78.6515 39.4839 78.7631 39.0405L78.7647 39.0468Z" fill="white"/>
<path d="M74.0256 41.22C74.3015 41.7976 74.6389 42.3437 75.032 42.8489C75.3622 43.3521 75.8464 43.7798 75.9471 44.393C76.1814 44.1163 76.1122 43.6839 76.0131 43.3647C75.8395 42.8939 75.5745 42.462 75.2334 42.094C74.8923 41.7259 74.4819 41.4289 74.0256 41.22Z" fill="white"/>
<path d="M64.0254 37.4668C63.6411 37.9766 63.3132 38.5264 63.0473 39.1068C62.7533 39.6319 62.5945 40.2577 62.1039 40.6288C62.4577 40.7106 62.8099 40.4496 63.0473 40.2153C63.7248 39.465 64.0766 38.4764 64.0254 37.4668Z" fill="white"/>
<path d="M56.8427 4.20279L59.1201 6.95874C61.1569 9.42367 64.5383 10.3161 67.5263 9.17743L70.8671 7.90428L68.1112 10.1817C65.6462 12.2185 64.7538 15.5999 65.8925 18.5879L67.1656 21.9287L64.8883 19.1728C62.8514 16.7078 59.47 15.8154 56.482 16.9541L53.1412 18.2272L55.8971 15.9499C58.3621 13.913 59.2545 10.5316 58.1158 7.54357L56.8427 4.20279Z" fill="#D9D6FE"/>
</g>
<defs>
<clipPath id="clip0_24_8668">
<rect width="78.6182" height="78.6182" fill="white" transform="matrix(-1 0 0 1 94.0001 0)"/>
</clipPath>
</defs>
</svg>
