<svg width="16" height="16" viewBox="0 0 16 16" fill="none" xmlns="http://www.w3.org/2000/svg">
<path d="M7.99998 1.33398C4.32665 1.33398 1.33331 4.32732 1.33331 8.00065C1.33331 11.674 4.32665 14.6673 7.99998 14.6673C11.6733 14.6673 14.6666 11.674 14.6666 8.00065C14.6666 4.32732 11.6733 1.33398 7.99998 1.33398ZM10.9 10.3807C10.8066 10.5407 10.64 10.6273 10.4666 10.6273C10.38 10.6273 10.2933 10.6073 10.2133 10.554L8.14665 9.32065C7.63331 9.01398 7.25331 8.34065 7.25331 7.74732V5.01398C7.25331 4.74065 7.47998 4.51398 7.75331 4.51398C8.02665 4.51398 8.25331 4.74065 8.25331 5.01398V7.74732C8.25331 7.98732 8.45331 8.34065 8.65998 8.46065L10.7266 9.69398C10.9666 9.83398 11.0466 10.1407 10.9 10.3807Z" fill="#F79009"/>
</svg>
