<svg id="Layer_1" data-name="Layer 1" xmlns="http://www.w3.org/2000/svg" viewBox="0 0 100 100"><defs><style>.cls-1{fill:none;}.cls-2{fill:#204c9a;}</style></defs><g id="expenses"><rect class="cls-1" width="100" height="100"/><path class="cls-1" d="M.11,99.55.45.11,99.89.45l-.34,99.44ZM89.22,71.43c0-6.59.06-13.18.06-19.77a5.36,5.36,0,0,0-5.43-5.5Q68.43,46.07,53,46.05a5.38,5.38,0,0,0-3.71,1.4,5.79,5.79,0,0,0-1.85,4.61q0,13.41-.09,26.84c0,3.91,0,7.82,0,11.73a5.44,5.44,0,0,0,5.81,5.81c10,0,20,0,30.05.15a5.79,5.79,0,0,0,6-6C89.07,84.22,89.2,77.82,89.22,71.43Zm-44.78-14c0-2.14,0-4.14,0-6.14a8,8,0,0,1,2-5.3,8.82,8.82,0,0,1,7.16-3c6.34,0,12.67,0,19,.07h1.12l0-7c-2.62,0-5.17,0-7.72,0A3.87,3.87,0,0,1,62,31.9c0-1.42,0-2.84,0-4.26,0-1.15,0-2.3,0-3.46l-20.47-.07c1.15,1.75,2.34,3.4,3.35,5.14,2.94,5.11,3.65,10.45,1.2,15.94-3.53,7.89-12,12-21,10.92-1.81-.21-3.58-.72-5.43-1.1v1L19.56,91.8c0,1.86.37,2.24,2.27,2.25l21.91.07h.83c-.09-1.83-.22-3.53-.23-5.23,0-3.9,0-7.81,0-11.72,0-.35,0-.69,0-1.1-2.62,0-5.14,0-7.65,0A1.47,1.47,0,0,1,35,74.55c0-.91.58-1.49,1.64-1.5,2,0,4.07,0,6.1,0H44.3l0-4.73c-.27,0-.46,0-.65,0-2.33,0-4.66,0-7,0a1.5,1.5,0,0,1-1.64-1.53,1.53,1.53,0,0,1,1.62-1.55c.42,0,.84,0,1.26,0l6.42,0,0-4.73H43.28c-2,0-4.08,0-6.11,0A3.43,3.43,0,0,1,36,60.3a1.36,1.36,0,0,1-.9-1.71,1.39,1.39,0,0,1,1.52-1.19Zm-16.74-4a47,47,0,0,0,5.95-1.13C42.7,49.43,47.92,39.74,42,30.43c-1.65-2.61-3.66-5-5.48-7.49-.64-.87-1.3-1.44-2.46-.88a2.72,2.72,0,0,1-1.15.06c-3.36,0-6.72,0-10.08-.05-.76,0-1.52-.19-2.29-.23a1,1,0,0,0-.8.22C17.52,25,15.08,27.83,13.14,31A13.33,13.33,0,0,0,14,47C17.46,51.31,22.18,53.14,27.7,53.43ZM27.75,11h0c1.81,0,3.63-.1,5.43.06a2.61,2.61,0,0,0,2.44-1.18,2.41,2.41,0,0,0,.15-3.12A2.47,2.47,0,0,0,32.7,5.9c-1.56.63-1.83.52-2.47-1a2.47,2.47,0,0,0-2-1.6,2.06,2.06,0,0,0-2.4,1.07c-.68,2-1.75,2.08-3.47,1.36a2.09,2.09,0,0,0-2.42,1,2.21,2.21,0,0,0-.16,2.63c.51.77.95,1.68,2.17,1.64C23.87,11,25.81,11,27.75,11Zm.07,8v0c1.74,0,3.48,0,5.23,0a2.49,2.49,0,1,0,0-5q-5.28,0-10.56,0a3.26,3.26,0,0,0-1.56.4A2.43,2.43,0,0,0,22.1,19C24,19,25.91,19,27.82,19Zm45.63,13.9-8.32-8.32c0,2.41,0,5,0,7.55a1,1,0,0,0,.7.71C68.41,32.91,71,32.9,73.45,32.91Z"/><path class="cls-2" d="M89.22,71.43c0,6.39-.15,12.79,0,19.19a5.79,5.79,0,0,1-6,6c-10-.16-20-.12-30.05-.15a5.44,5.44,0,0,1-5.81-5.81c0-3.91,0-7.82,0-11.73q0-13.43.09-26.84a5.79,5.79,0,0,1,1.85-4.61A5.38,5.38,0,0,1,53,46.05q15.42,0,30.83.11a5.36,5.36,0,0,1,5.43,5.5C89.28,58.25,89.24,64.84,89.22,71.43ZM68.32,61.22l13.28.05c1.31,0,1.64-.34,1.65-1.67s0-2.45,0-3.68c0-1.7-.24-1.94-2-2l-14.06,0-11.73,0c-1.78,0-2,.21-2,2,0,1.13,0,2.26,0,3.39,0,1.62.25,1.87,1.84,1.88Zm-10.24,10h2.13a1.34,1.34,0,0,0,1.47-1.43c0-.38,0-.77,0-1.16,0-1-.46-1.47-1.47-1.49-1.33,0-2.65,0-4,0s-1.62.37-1.66,1.6a11.25,11.25,0,0,0,0,1.16A1.26,1.26,0,0,0,56,71.24C56.66,71.26,57.37,71.25,58.08,71.25Zm10.37-4H66.22a1.31,1.31,0,0,0-1.44,1.44c0,.35,0,.71,0,1.06,0,1.11.47,1.56,1.6,1.58,1.32,0,2.64,0,4,0,1,0,1.47-.43,1.53-1.45a8.78,8.78,0,0,0,0-1.45,1.2,1.2,0,0,0-1.29-1.17ZM58.09,80c.71,0,1.42,0,2.13,0a1.33,1.33,0,0,0,1.43-1.46q0-.58,0-1.17c0-1-.46-1.42-1.41-1.44-1.42,0-2.84,0-4.26,0a1.26,1.26,0,0,0-1.42,1.34,11.69,11.69,0,0,0,0,1.45A1.25,1.25,0,0,0,55.87,80C56.61,80,57.35,80,58.09,80Zm10.14,0c.68,0,1.36,0,2,0,1.13,0,1.56-.45,1.59-1.6a8.68,8.68,0,0,0,0-1.25,1.22,1.22,0,0,0-1.34-1.23c-1.45,0-2.9,0-4.35,0a1.25,1.25,0,0,0-1.39,1.37c0,.42,0,.84,0,1.26A1.33,1.33,0,0,0,66.2,80C66.88,80,67.55,80,68.23,80Zm-10.1,4.61h-2c-1.12,0-1.53.39-1.58,1.48a10.59,10.59,0,0,0,0,1.26,1.25,1.25,0,0,0,1.35,1.32c1.45,0,2.9,0,4.35,0a1.27,1.27,0,0,0,1.37-1.11c.3-1.5,0-2.56-.77-2.86a1.87,1.87,0,0,0-.67-.09Zm10.08,4.1h1.94c1.22,0,1.64-.41,1.68-1.6a11.22,11.22,0,0,0,0-1.16,1.25,1.25,0,0,0-1.36-1.31c-1.45,0-2.9,0-4.35,0-.91,0-1.34.46-1.38,1.38,0,.38,0,.77,0,1.16,0,1,.48,1.5,1.56,1.52C66.92,88.73,67.57,88.72,68.21,88.72Zm10.4-21.48h-1c-2.56,0-2.69.13-2.61,2.65,0,1,.44,1.39,1.43,1.42s2,0,3,0c2.55,0,2.75-.2,2.61-2.76v-.09a1.17,1.17,0,0,0-1.24-1.21C80.09,67.23,79.35,67.25,78.61,67.24Zm0,8.73H77.51c-2.45,0-2.56.1-2.51,2.56,0,1.08.42,1.49,1.53,1.52s1.94,0,2.9,0c2.53,0,2.7-.16,2.61-2.67v-.1A1.19,1.19,0,0,0,80.7,76Zm-.13,12.79h1c2.53,0,2.69-.15,2.6-2.67,0-1-.43-1.37-1.44-1.39s-2,0-3,0c-2.56,0-2.69.12-2.6,2.64,0,1,.44,1.38,1.44,1.42C77.08,88.77,77.76,88.76,78.44,88.76Z"/><path class="cls-2" d="M44.44,57.42l-7.8,0a1.39,1.39,0,0,0-1.52,1.19A1.36,1.36,0,0,0,36,60.3a3.43,3.43,0,0,0,1.15.14c2,0,4.07,0,6.11,0h1.09l0,4.73-6.42,0c-.42,0-.84,0-1.26,0a1.53,1.53,0,0,0-1.62,1.55,1.5,1.5,0,0,0,1.64,1.53c2.32,0,4.65,0,7,0,.19,0,.38,0,.65,0l0,4.73H42.76c-2,0-4.07,0-6.1,0-1.06,0-1.65.59-1.64,1.5a1.47,1.47,0,0,0,1.65,1.5c2.51,0,5,0,7.65,0,0,.41,0,.75,0,1.1,0,3.91,0,7.82,0,11.72,0,1.7.14,3.4.23,5.23h-.83l-21.91-.07c-1.9,0-2.28-.39-2.27-2.25L19.68,56V55c1.85.38,3.62.89,5.43,1.1,9,1,17.48-3,21-10.92,2.45-5.49,1.74-10.83-1.2-15.94-1-1.74-2.2-3.39-3.35-5.14L62,24.18c0,1.16,0,2.31,0,3.46,0,1.42,0,2.84,0,4.26A3.87,3.87,0,0,0,66.08,36c2.55,0,5.1,0,7.72,0l0,7H72.65c-6.33,0-12.66,0-19-.07a8.82,8.82,0,0,0-7.16,3,8,8,0,0,0-2,5.3C44.45,53.28,44.45,55.28,44.44,57.42ZM28.49,68.22h0a7.5,7.5,0,0,0,1.06,0A1.48,1.48,0,0,0,31,66.76a1.4,1.4,0,0,0-1.29-1.55,8.44,8.44,0,0,0-2.3,0,1.35,1.35,0,0,0-1.2,1.5,1.44,1.44,0,0,0,1.27,1.47A4.69,4.69,0,0,0,28.49,68.22Zm.14-10.85h-.86a1.46,1.46,0,0,0-1.58,1.45,1.44,1.44,0,0,0,1.46,1.57,10.17,10.17,0,0,0,1.83,0A1.49,1.49,0,0,0,31,58.84a1.54,1.54,0,0,0-1.68-1.47ZM28.51,76h0c.32,0,.64,0,1,0a1.49,1.49,0,0,0,1.47-1.48A1.45,1.45,0,0,0,29.5,73a15,15,0,0,0-2,0,1.35,1.35,0,0,0-1.35,1.46A1.42,1.42,0,0,0,27.45,76,9.35,9.35,0,0,0,28.51,76Z"/><path class="cls-2" d="M27.7,53.43C22.18,53.14,17.46,51.31,14,47a13.33,13.33,0,0,1-.84-16c1.94-3.14,4.38-6,6.63-8.91a1,1,0,0,1,.8-.22c.77,0,1.53.23,2.29.23,3.36,0,6.72,0,10.08.05a2.72,2.72,0,0,0,1.15-.06c1.16-.56,1.82,0,2.46.88,1.82,2.5,3.83,4.88,5.48,7.49,5.89,9.31.67,19-8.38,21.87A47,47,0,0,1,27.7,53.43Zm1.55-9.34,1.1-.37a4.31,4.31,0,0,0,3.13-4.19c0-2.19-1.39-3.83-3.89-4.59-1-.3-2.07-.48-3.08-.8-.64-.2-1.27-.67-1.09-1.38a2.45,2.45,0,0,1,1.12-1.42,2.68,2.68,0,0,1,3.67,1.27,1.54,1.54,0,0,0,2.11.8,1.56,1.56,0,0,0,.58-2.25,5.13,5.13,0,0,0-2.9-2.7,1,1,0,0,1-.79-1,1.36,1.36,0,0,0-1.42-1.32,1.32,1.32,0,0,0-1.51,1.18c-.09.72-.46,1-1.06,1.24a4.41,4.41,0,0,0-2.86,4,4,4,0,0,0,2.23,4,13.28,13.28,0,0,0,2.26.84,17.75,17.75,0,0,1,2.73.88,1.79,1.79,0,0,1,.77,1.39c0,.37-.5.89-.91,1.09a3.25,3.25,0,0,1-4.65-1.63,1.48,1.48,0,0,0-1.89-.89,1.51,1.51,0,0,0-.93,2,5,5,0,0,0,3.22,3.49c.59.22,1,.43,1,1.16a1.35,1.35,0,0,0,1.4,1.23A1.48,1.48,0,0,0,29.13,45,4.79,4.79,0,0,0,29.25,44.09Z"/><path class="cls-2" d="M27.75,11c-1.94,0-3.88-.06-5.82,0-1.22,0-1.66-.87-2.17-1.64a2.21,2.21,0,0,1,.16-2.63,2.09,2.09,0,0,1,2.42-1c1.72.72,2.79.59,3.47-1.36a2.06,2.06,0,0,1,2.4-1.07,2.47,2.47,0,0,1,2,1.6c.64,1.51.91,1.62,2.47,1a2.47,2.47,0,0,1,3.07.89,2.41,2.41,0,0,1-.15,3.12,2.61,2.61,0,0,1-2.44,1.18c-1.8-.16-3.62-.06-5.43-.06Z"/><path class="cls-2" d="M27.82,19c-1.91,0-3.81,0-5.72,0A2.43,2.43,0,0,1,21,14.48a3.26,3.26,0,0,1,1.56-.4q5.28,0,10.56,0a2.49,2.49,0,1,1,0,5c-1.75,0-3.49,0-5.23,0Z"/><path class="cls-2" d="M73.45,32.91c-2.47,0-5,0-7.61-.06a1,1,0,0,1-.7-.71c0-2.57,0-5.14,0-7.55Z"/><path class="cls-1" d="M68.32,61.22l-13,0c-1.59,0-1.84-.26-1.84-1.88,0-1.13,0-2.26,0-3.39,0-1.81.22-2,2-2l11.73,0,14.06,0c1.74,0,2,.25,2,2,0,1.23,0,2.45,0,3.68s-.34,1.67-1.65,1.67Z"/><path class="cls-1" d="M58.08,71.25c-.71,0-1.42,0-2.13,0a1.26,1.26,0,0,1-1.36-1.31,11.25,11.25,0,0,1,0-1.16c0-1.23.42-1.6,1.66-1.6s2.64,0,4,0c1,0,1.45.48,1.47,1.49,0,.39,0,.78,0,1.16a1.34,1.34,0,0,1-1.47,1.43H58.08Z"/><path class="cls-1" d="M68.45,67.21h2.12a1.2,1.2,0,0,1,1.29,1.17,8.78,8.78,0,0,1,0,1.45c-.06,1-.5,1.44-1.53,1.45-1.33,0-2.65,0-4,0-1.13,0-1.58-.47-1.6-1.58,0-.35,0-.71,0-1.06a1.31,1.31,0,0,1,1.44-1.44h2.23Z"/><path class="cls-1" d="M58.09,80c-.74,0-1.48,0-2.22,0a1.25,1.25,0,0,1-1.31-1.28,11.69,11.69,0,0,1,0-1.45A1.26,1.26,0,0,1,56,75.89c1.42,0,2.84,0,4.26,0,.95,0,1.38.48,1.41,1.44q0,.59,0,1.17A1.33,1.33,0,0,1,60.22,80C59.51,80,58.8,80,58.09,80Z"/><path class="cls-1" d="M68.23,80c-.68,0-1.35,0-2,0a1.33,1.33,0,0,1-1.45-1.44c0-.42,0-.84,0-1.26a1.25,1.25,0,0,1,1.39-1.37c1.45,0,2.9,0,4.35,0a1.22,1.22,0,0,1,1.34,1.23,8.68,8.68,0,0,1,0,1.25c0,1.15-.46,1.58-1.59,1.6C69.59,80,68.91,80,68.23,80Z"/><path class="cls-1" d="M58.13,84.62h2a1.87,1.87,0,0,1,.67.09c.78.3,1.07,1.36.77,2.86a1.27,1.27,0,0,1-1.37,1.11c-1.45,0-2.9,0-4.35,0a1.25,1.25,0,0,1-1.35-1.32,10.59,10.59,0,0,1,0-1.26c0-1.09.46-1.47,1.58-1.48Z"/><path class="cls-1" d="M68.21,88.72c-.64,0-1.29,0-1.93,0-1.08,0-1.54-.47-1.56-1.52,0-.39,0-.78,0-1.16,0-.92.47-1.37,1.38-1.38,1.45,0,2.9,0,4.35,0A1.25,1.25,0,0,1,71.82,86a11.22,11.22,0,0,1,0,1.16c0,1.19-.46,1.59-1.68,1.6Z"/><path class="cls-1" d="M78.61,67.24c.74,0,1.48,0,2.22,0a1.17,1.17,0,0,1,1.24,1.21v.09c.14,2.56-.06,2.77-2.61,2.76-1,0-2,0-3,0s-1.4-.45-1.43-1.42c-.08-2.52,0-2.66,2.61-2.65Z"/><path class="cls-1" d="M78.57,76H80.7A1.19,1.19,0,0,1,82,77.28v.1c.09,2.51-.08,2.68-2.61,2.67-1,0-1.93,0-2.9,0S75,79.6,75,78.52c0-2.46.06-2.56,2.51-2.56Z"/><path class="cls-1" d="M78.44,88.76c-.68,0-1.36,0-2,0-1,0-1.41-.45-1.44-1.42-.09-2.52,0-2.65,2.6-2.64,1,0,2,0,3,0S82,85.11,82,86.09c.09,2.52-.07,2.68-2.6,2.67Z"/><path class="cls-1" d="M28.49,68.22a4.69,4.69,0,0,1-1.06,0,1.44,1.44,0,0,1-1.27-1.47,1.35,1.35,0,0,1,1.2-1.5,8.44,8.44,0,0,1,2.3,0A1.4,1.4,0,0,1,31,66.76a1.48,1.48,0,0,1-1.4,1.47,7.5,7.5,0,0,1-1.06,0Z"/><path class="cls-1" d="M28.63,57.37h.68A1.54,1.54,0,0,1,31,58.84a1.49,1.49,0,0,1-1.51,1.55,10.17,10.17,0,0,1-1.83,0,1.44,1.44,0,0,1-1.46-1.57,1.46,1.46,0,0,1,1.58-1.45Z"/><path class="cls-1" d="M28.51,76a9.35,9.35,0,0,1-1.06,0,1.42,1.42,0,0,1-1.31-1.5A1.35,1.35,0,0,1,27.49,73a15,15,0,0,1,2,0,1.45,1.45,0,0,1,1.44,1.5A1.49,1.49,0,0,1,29.47,76c-.32,0-.64,0-1,0Z"/><path class="cls-1" d="M29.25,44.09a4.79,4.79,0,0,1-.12.88,1.48,1.48,0,0,1-1.52,1.12,1.35,1.35,0,0,1-1.4-1.23c-.05-.73-.43-.94-1-1.16A5,5,0,0,1,22,40.21a1.51,1.51,0,0,1,.93-2,1.48,1.48,0,0,1,1.89.89,3.25,3.25,0,0,0,4.65,1.63c.41-.2.92-.72.91-1.09a1.79,1.79,0,0,0-.77-1.39,17.75,17.75,0,0,0-2.73-.88,13.28,13.28,0,0,1-2.26-.84,4,4,0,0,1-2.23-4,4.41,4.41,0,0,1,2.86-4c.6-.27,1-.52,1.06-1.24a1.32,1.32,0,0,1,1.51-1.18,1.36,1.36,0,0,1,1.42,1.32,1,1,0,0,0,.79,1,5.13,5.13,0,0,1,2.9,2.7,1.56,1.56,0,0,1-.58,2.25,1.54,1.54,0,0,1-2.11-.8,2.68,2.68,0,0,0-3.67-1.27,2.45,2.45,0,0,0-1.12,1.42c-.18.71.45,1.18,1.09,1.38,1,.32,2.07.5,3.08.8,2.5.76,3.87,2.4,3.89,4.59a4.31,4.31,0,0,1-3.13,4.19Z"/></g></svg>