<svg id="Layer_1" data-name="Layer 1" xmlns="http://www.w3.org/2000/svg" viewBox="0 0 100 100"><defs><style>.cls-1{fill:none;}.cls-2{fill:#204c9a;}</style></defs><g id="leaves_time_out" data-name="leaves time out"><rect class="cls-1" width="100" height="100"/><rect class="cls-1" width="100" height="100"/><path class="cls-2" d="M8.73,6.3H69.48c.22.11.45.22.66.34A3.44,3.44,0,0,1,72.2,9.82q0,11,0,22.06a3.54,3.54,0,0,1-2.63,3.37,3.73,3.73,0,0,1-4.83-3.75c0-5.62,0-11.24,0-16.86v-1H35.34A1.92,1.92,0,0,0,36,14c3.65,1.08,7.31,2.15,11,3.25a4.14,4.14,0,0,1,2.37,1.39,4.18,4.18,0,0,1,.74,2.64q0,28.27,0,56.56V78.9H64.74V77.81c0-5.62,0-11.24,0-16.86a3.73,3.73,0,1,1,7.46,0q0,10.79,0,21.55a3.92,3.92,0,0,1-.13,1.09c-.49,1.76-1.84,2.68-3.94,2.68h-18c0,1.24,0,2.34,0,3.45a3.72,3.72,0,0,1-4.56,3.73c-2.42-.42-4.82-1-7.23-1.42L25.9,89.61c-5.77-1.14-11.54-2.26-17.3-3.42a3.52,3.52,0,0,1-2.93-3.56q0-36.24,0-72.49a5.23,5.23,0,0,1,.17-1.25A3.8,3.8,0,0,1,8.73,6.3Z"/><path class="cls-1" d="M8.73,6.3A3.8,3.8,0,0,0,5.85,8.89a5.23,5.23,0,0,0-.17,1.25q0,36.24,0,72.49A3.52,3.52,0,0,0,8.6,86.19c5.76,1.16,11.53,2.28,17.3,3.42l12.4,2.44c2.41.47,4.81,1,7.23,1.42a3.72,3.72,0,0,0,4.56-3.73c0-1.11,0-2.21,0-3.45h18c2.1,0,3.45-.92,3.94-2.68a3.92,3.92,0,0,0,.13-1.09q0-10.77,0-21.55a3.73,3.73,0,1,0-7.46,0c0,5.62,0,11.24,0,16.86V78.9H50.09V77.82q0-28.27,0-56.56a4.18,4.18,0,0,0-.74-2.64A4.14,4.14,0,0,0,47,17.23c-3.65-1.1-7.31-2.17-11-3.25a1.92,1.92,0,0,1-.68-.32h29.4v1c0,5.62,0,11.24,0,16.86a3.73,3.73,0,0,0,4.83,3.75,3.54,3.54,0,0,0,2.63-3.37q0-11,0-22.06a3.44,3.44,0,0,0-2.06-3.18c-.21-.12-.44-.23-.66-.34h25V93.7H5.5V6.3ZM81.51,49.91l.16.25c-1.65,1.6-3.3,3.19-4.93,4.8a2.92,2.92,0,0,0-.66.93,3.26,3.26,0,0,0,1,3.88,3.62,3.62,0,0,0,5.13,0c1.51-1.44,3-2.89,4.52-4.36,2.12-2.09,4.21-4.2,6.31-6.32a3.67,3.67,0,0,0,0-5.68q-5.34-5.3-10.73-10.54a4.53,4.53,0,0,0-1.72-1c-1.56-.49-2.77.18-3.88,1.27a3.43,3.43,0,0,0-.17,4.34c1.16,1.16,2.34,2.3,3.51,3.45.52.5,1,1,1.58,1.46l-.15.21h-.92c-6.38,0-12.75,0-19.13,0a4.28,4.28,0,0,0-4,3c-.55,2.18,1.9,4.36,3.71,4.32,3.28-.09,6.57,0,9.86,0Z"/><path class="cls-2" d="M81.51,49.91H71c-3.29,0-6.58-.06-9.86,0-1.81,0-4.26-2.14-3.71-4.32a4.28,4.28,0,0,1,4-3c6.38,0,12.75,0,19.13,0h.92l.15-.21c-.53-.49-1.06-1-1.58-1.46-1.17-1.15-2.35-2.29-3.51-3.45a3.43,3.43,0,0,1,.17-4.34c1.11-1.09,2.32-1.76,3.88-1.27a4.53,4.53,0,0,1,1.72,1Q87.69,38.13,93,43.43a3.67,3.67,0,0,1,0,5.68c-2.1,2.12-4.19,4.23-6.31,6.32-1.49,1.47-3,2.92-4.52,4.36a3.62,3.62,0,0,1-5.13,0,3.26,3.26,0,0,1-1-3.88,2.92,2.92,0,0,1,.66-.93c1.63-1.61,3.28-3.2,4.93-4.8Z"/></g></svg>