<svg width="125" height="95" viewBox="0 0 125 95" fill="none" xmlns="http://www.w3.org/2000/svg">
<path d="M102.953 44.4668L104.483 46.3179C105.851 47.9735 108.122 48.5729 110.129 47.8081L112.373 46.953L110.522 48.4826C108.866 49.8507 108.267 52.1219 109.032 54.1289L109.887 56.3728L108.357 54.5217C106.989 52.8661 104.718 52.2667 102.711 53.0315L100.467 53.8866L102.318 52.357C103.974 50.9888 104.573 48.7176 103.808 46.7107L102.953 44.4668Z" fill="#EBE9FE"/>
<path d="M11.7549 33.7977C10.8776 36.6395 12.345 39.6762 15.1166 40.7549C12.2748 39.8777 9.23809 41.345 8.1594 44.1166C9.03661 41.2748 7.56929 38.2381 4.7977 37.1594C7.63949 38.0366 10.6762 36.5693 11.7549 33.7977Z" fill="#EBE9FE"/>
<path d="M5.70227 70.499C5.94749 73.463 8.44094 75.7339 11.4149 75.7018C8.45089 75.9471 6.17995 78.4405 6.21204 81.4144C5.96683 78.4505 3.47338 76.1795 0.499451 76.2116C3.46342 75.9664 5.73437 73.4729 5.70227 70.499Z" fill="#EBE9FE"/>
<path d="M90.7549 75.7977C89.8777 78.6395 91.345 81.6762 94.1166 82.7549C91.2748 81.8777 88.2381 83.345 87.1594 86.1166C88.0366 83.2748 86.5693 80.2381 83.7977 79.1594C86.6395 80.0366 89.6762 78.5693 90.7549 75.7977Z" fill="#EBE9FE"/>
<path d="M46.5485 88.8478C47.0593 90.2177 48.5417 90.9601 49.9446 90.5489C48.5747 91.0597 47.8323 92.542 48.2435 93.945C47.7327 92.5751 46.2504 91.8326 44.8474 92.2439C46.2173 91.7331 46.9598 90.2508 46.5485 88.8478Z" fill="#EBE9FE"/>
<path d="M31.4736 11.4096C31.3026 12.8616 32.2824 14.199 33.7183 14.4736C32.2664 14.3026 30.929 15.2824 30.6544 16.7184C30.8254 15.2664 29.8456 13.929 28.4096 13.6544C29.8615 13.8254 31.1989 12.8456 31.4736 11.4096Z" fill="#EBE9FE"/>
<path d="M123.784 39.5711C123.56 40.2653 123.911 41.0141 124.587 41.2867C123.893 41.0633 123.144 41.4141 122.872 42.0905C123.095 41.3963 122.744 40.6475 122.068 40.3749C122.762 40.5983 123.511 40.2475 123.784 39.5711Z" fill="#EBE9FE"/>
<path d="M69.1516 35.5809L66.8559 34.3175L77.3963 15.1651L67.5936 9.77024L57.0532 28.9226L54.7575 27.6592L65.853 7.49805L80.2472 15.4198L69.1516 35.5809Z" fill="#E0E0E0"/>
<path d="M69.137 35.6075C69.137 35.6075 69.2045 35.4847 69.3343 35.249C69.4641 35.0132 69.656 34.6644 69.9049 34.2123C70.4046 33.3042 71.1371 31.9732 72.0447 30.2588C73.913 26.8641 76.5623 21.985 79.776 16.0912L79.8499 16.1852L65.4557 8.26345L65.5906 8.27927C62.5202 13.8584 59.0593 20.1469 55.4108 26.7764L54.8746 27.7507L54.7831 27.6343L57.0788 28.8978L56.9316 28.8827C60.6101 22.1987 64.0709 15.9102 67.1124 10.3837L67.1371 10.3389L77.1464 15.8475L77.1228 15.8903C71.9329 25.2336 68.1947 31.961 66.8685 34.3489L66.8463 34.324L68.5589 35.2665L69.142 35.5875L68.5727 35.2741L66.8463 34.324L66.8234 34.3114L66.8287 34.3016C68.1457 31.9086 71.8197 25.1459 76.9361 15.7622L77.01 15.8562L67.2073 10.4613L67.3376 10.4746C64.2961 16.0011 60.8352 22.2896 57.1567 28.9736L57.1288 29.0243L54.5944 27.6295L55.1424 26.6337C58.7888 20.0081 62.2517 13.7157 65.3222 8.13661L65.3479 8.08984L65.4535 8.14796L79.8476 16.0697L79.9487 16.1253L79.9251 16.1681C76.659 22.0484 73.9595 26.91 72.0778 30.3074C71.1458 32.0008 70.4144 33.3299 69.8882 34.2208C69.6404 34.671 69.4517 35.014 69.3219 35.2498C69.1921 35.4855 69.137 35.6075 69.137 35.6075Z" fill="#263238"/>
<path d="M63 11.5504L64.8371 8.2124C65.0448 7.83491 65.394 7.5554 65.8079 7.43538C66.2217 7.31535 66.6663 7.36464 67.0437 7.57239L79.8998 14.6476C80.0867 14.7505 80.2515 14.8892 80.3848 15.0557C80.5182 15.2223 80.6174 15.4135 80.6768 15.6184C80.7362 15.8233 80.7547 16.0379 80.7312 16.25C80.7077 16.462 80.6426 16.6674 80.5398 16.8543L78.7027 20.1923L75.1903 18.2592L76.1733 16.4731L67.5551 11.7302L66.5722 13.5163L63 11.5504Z" fill="#263238"/>
<path d="M66.7233 10.3392C66.6854 10.4081 66.2857 10.2539 65.8311 10.0037C65.3765 9.75357 65.0278 9.49587 65.0657 9.427C65.1036 9.35813 65.5034 9.51229 65.9625 9.76498C66.4216 10.0177 66.7586 10.2749 66.7233 10.3392Z" fill="#263238"/>
<path d="M64.8265 12.4826C65.283 12.7338 65.6824 12.884 65.7187 12.8181C65.755 12.7522 65.4144 12.4951 64.9579 12.2439C64.5015 11.9927 64.102 11.8425 64.0658 11.9084C64.0295 11.9744 64.3701 12.2314 64.8265 12.4826Z" fill="#263238"/>
<path d="M66.1759 9.40968C66.3103 9.48364 66.4792 9.43465 66.5532 9.30025C66.6271 9.16586 66.5782 8.99695 66.4438 8.92299C66.3094 8.84902 66.1405 8.89801 66.0665 9.03241C65.9925 9.1668 66.0415 9.33571 66.1759 9.40968Z" fill="#263238"/>
<path d="M78.8217 16.9974C78.7838 17.0663 78.3841 16.9121 77.9296 16.6619C77.475 16.4118 77.1263 16.1541 77.1642 16.0852C77.2021 16.0163 77.6018 16.1705 78.0609 16.4232C78.5201 16.6759 78.8571 16.9331 78.8217 16.9974Z" fill="#263238"/>
<path d="M77.8172 19.4769C77.7818 19.5412 77.3796 19.3916 76.925 19.1414C76.4705 18.8913 76.1243 18.629 76.1597 18.5647C76.1951 18.5004 76.5973 18.65 77.0564 18.9027C77.5156 19.1554 77.8551 19.408 77.8172 19.4769Z" fill="#263238"/>
<path d="M78.2744 16.0679C78.4088 16.1418 78.5777 16.0929 78.6516 15.9585C78.7256 15.8241 78.6766 15.6552 78.5422 15.5812C78.4078 15.5072 78.2389 15.5562 78.1649 15.6906C78.091 15.825 78.14 15.9939 78.2744 16.0679Z" fill="#263238"/>
<path d="M67.7392 35.1146C67.5259 35.1109 67.4759 34.1801 66.9454 32.8831C66.3295 31.1719 65.122 29.7374 63.5409 28.8388C61.9598 27.9401 60.1094 27.6365 58.3241 27.9829C56.9312 28.2094 56.1027 28.6388 55.99 28.4631C55.8773 28.2874 56.5597 27.5802 58.0913 27.0472C58.9882 26.7513 59.933 26.6278 60.8758 26.6833C62.049 26.7401 63.1924 27.0723 64.2135 27.6529C65.2345 28.2335 66.1046 29.0464 66.7532 30.0256C67.2841 30.8056 67.662 31.6794 67.8666 32.6005C68.22 34.1649 67.9006 35.1257 67.7392 35.1146Z" fill="#263238"/>
<path d="M72.6273 37.4939L49.1743 24.5867C46.5726 23.1549 43.3027 24.1032 41.8709 26.705L20.668 65.2317C19.2361 67.8334 20.1845 71.1032 22.7862 72.535L46.2392 85.4423C48.8409 86.8741 52.1108 85.9257 53.5426 83.324L74.7455 44.7973C76.1774 42.1956 75.229 38.9258 72.6273 37.4939Z" fill="url(#paint0_linear_0_1)"/>
<path d="M46.2494 85.4243C46.7794 85.6896 47.3446 85.8778 47.9279 85.9831C48.7645 86.1188 49.6213 86.0555 50.4289 85.7985C51.2365 85.5415 51.9723 85.0979 52.5766 84.5036C53.3712 83.7445 53.8491 82.5718 54.5337 81.3932C55.2182 80.2146 55.8906 78.9276 56.6512 77.5456C58.1673 74.7908 59.8982 71.6456 61.8085 68.1745C63.7188 64.7034 65.8161 60.8925 68.0625 56.8107C69.1878 54.766 70.3493 52.6554 71.5471 50.4791L73.3689 47.1687C73.6747 46.6131 73.9855 46.0484 74.2988 45.479C74.6339 44.9313 74.9115 44.3503 75.1272 43.7455C75.4123 42.8054 75.4291 41.8043 75.1756 40.8552C74.9221 39.906 74.4085 39.0466 73.6927 38.3738C73.1852 37.9326 72.6218 37.5602 72.0171 37.2662L49.1334 24.6723C48.4893 24.3187 47.778 24.1046 47.0458 24.0438C46.3135 23.983 45.5767 24.0768 44.883 24.3191C44.1955 24.558 43.5643 24.9355 43.0285 25.4281C42.506 25.934 42.0775 26.5286 41.7629 27.1843L37.5683 34.806C34.8165 39.8061 32.1633 44.6271 29.6364 49.2186C27.1096 53.81 24.7065 58.1764 22.4576 62.2628C21.8967 63.2821 21.3433 64.2876 20.8025 65.2702C20.2825 66.2289 20.0682 67.3238 20.1884 68.4078C20.3066 69.4479 20.7336 70.4288 21.4142 71.224C21.7397 71.6085 22.1201 71.9428 22.5432 72.2162C22.9545 72.4905 23.4247 72.7014 23.8437 72.9618L40.2746 82.0523L44.6745 84.5576L40.1898 82.1194L23.7185 73.1023C23.2594 72.8496 22.8461 72.6222 22.3916 72.3721C21.9518 72.0884 21.5561 71.7416 21.2172 71.3429C20.5093 70.5172 20.0636 69.4992 19.937 68.419C19.7982 67.2967 20.0068 66.1588 20.5348 65.1588L22.1925 62.1468C24.4414 58.0604 26.8419 53.6985 29.3713 49.1025C31.9007 44.5065 34.5514 39.6901 37.3031 34.69C38.6777 32.1923 40.0759 29.6517 41.4977 27.0682C41.8262 26.3875 42.2731 25.7706 42.8175 25.2462C43.6688 24.4565 44.7469 23.9546 45.8993 23.8115C47.0516 23.6684 48.2198 23.8914 49.2384 24.4489L72.067 37.0125C72.6909 37.3164 73.2706 37.7039 73.7901 38.1641C74.2974 38.6355 74.7098 39.1996 75.0052 39.8259C75.5908 41.067 75.693 42.4818 75.2918 43.7942C75.0703 44.4156 74.7858 45.0127 74.4427 45.5762L73.5129 47.2658C72.8963 48.3862 72.289 49.4896 71.691 50.5763C70.4933 52.7526 69.3317 54.8631 68.2064 56.9079C65.9601 60.9896 63.8653 64.7959 61.9524 68.2717C60.0396 71.7474 58.3138 74.8833 56.7951 77.6428C56.0371 79.0202 55.327 80.3104 54.6776 81.4904C54.3516 82.0827 54.0408 82.6474 53.7452 83.1846C53.47 83.7086 53.1173 84.1881 52.6992 84.607C51.99 85.304 51.1011 85.7902 50.1316 86.0115C48.9912 86.2834 47.7926 86.165 46.7273 85.6754L46.2494 85.4243Z" fill="#263238"/>
<path d="M25.4284 77.3217C25.2027 77.734 24.8597 78.07 24.4429 78.2871C24.0261 78.5043 23.5542 78.5928 23.087 78.5416C22.6198 78.4903 22.1783 78.3015 21.8185 77.9991C21.4587 77.6967 21.1968 77.2943 21.0658 76.8429C20.9349 76.3915 20.9409 75.9115 21.0831 75.4635C21.2253 75.0155 21.4972 74.6198 21.8645 74.3265C22.2317 74.0332 22.6778 73.8555 23.1461 73.816C23.6144 73.7764 24.084 73.8767 24.4952 74.1042C25.0456 74.4071 25.4532 74.9163 25.6282 75.5197C25.8032 76.1231 25.7313 76.7713 25.4284 77.3217Z" fill="#455A64"/>
<path d="M36.1071 37.1785L36.0107 37.1254C35.6918 36.9507 35.4106 36.7148 35.1831 36.4311C34.9556 36.1475 34.7864 35.8218 34.6851 35.4726C34.5838 35.1234 34.5525 34.7576 34.5929 34.3963C34.6333 34.0349 34.7447 33.6852 34.9206 33.367C35.0956 33.0488 35.3317 32.7683 35.6154 32.5415C35.899 32.3147 36.2245 32.1461 36.5734 32.0453C36.9223 31.9445 37.2876 31.9134 37.6485 31.9539C38.0093 31.9945 38.3587 32.1058 38.6765 32.2815L38.7729 32.3345L36.1071 37.1785Z" fill="#263238"/>
<path d="M23.8543 59.4419L23.7579 59.3888C23.4391 59.2141 23.1578 58.9782 22.9304 58.6945C22.7029 58.4109 22.5337 58.0851 22.4324 57.7359C22.3311 57.3868 22.2998 57.021 22.3402 56.6597C22.3806 56.2983 22.4919 55.9485 22.6678 55.6303C23.0217 54.9874 23.6165 54.5113 24.3213 54.3069C25.0262 54.1025 25.7834 54.1864 26.4263 54.5402L26.5227 54.5933L23.8543 59.4419Z" fill="#263238"/>
<path d="M23.4337 72.8916L22.3343 76.2587L23.7761 77.0521L26.0829 74.3496L23.4337 72.8916Z" fill="#263238"/>
<path d="M24.432 76.773C24.3165 76.9829 24.1412 77.1539 23.9284 77.2641C23.7156 77.3744 23.4749 77.419 23.2367 77.3924C22.9986 77.3657 22.7737 77.2689 22.5905 77.1143C22.4074 76.9598 22.2742 76.7543 22.208 76.524C22.1417 76.2936 22.1453 76.0488 22.2183 75.8206C22.2913 75.5923 22.4304 75.3908 22.618 75.2416C22.8056 75.0925 23.0332 75.0024 23.2721 74.9827C23.5109 74.963 23.7503 75.0147 23.9597 75.1312C24.0988 75.2077 24.2214 75.311 24.3204 75.435C24.4195 75.559 24.4931 75.7014 24.537 75.8539C24.5809 76.0065 24.5942 76.1662 24.5762 76.3239C24.5582 76.4816 24.5092 76.6342 24.432 76.773Z" fill="#263238"/>
<path d="M46.2827 88.7981C46.0568 89.2085 45.7143 89.5428 45.2984 89.7586C44.8825 89.9744 44.412 90.062 43.9464 90.0104C43.4807 89.9588 43.0408 89.7702 42.6823 89.4686C42.3238 89.167 42.0628 88.7658 41.9323 88.3158C41.8018 87.8658 41.8076 87.3873 41.9491 86.9406C42.0906 86.494 42.3613 86.0993 42.7271 85.8066C43.0929 85.5138 43.5372 85.336 44.004 85.2958C44.4708 85.2556 44.9391 85.3547 45.3495 85.5806C45.8999 85.8835 46.3074 86.3927 46.4825 86.9961C46.6575 87.5995 46.5856 88.2477 46.2827 88.7981Z" fill="#455A64"/>
<path d="M44.2879 84.3682L43.1886 87.7353L44.6303 88.5287L46.9417 85.8287L44.2879 84.3682Z" fill="#263238"/>
<path d="M45.268 88.2398C45.1526 88.4495 44.9775 88.6204 44.765 88.7306C44.5525 88.8409 44.312 88.8857 44.074 88.8593C43.836 88.8329 43.6112 88.7366 43.428 88.5824C43.2448 88.4283 43.1114 88.2233 43.0447 87.9933C42.978 87.7633 42.981 87.5188 43.0533 87.2905C43.1256 87.0622 43.264 86.8605 43.4509 86.7109C43.6378 86.5613 43.8649 86.4704 44.1035 86.4499C44.342 86.4293 44.5813 86.48 44.7911 86.5954C44.9309 86.6716 45.0542 86.7747 45.154 86.8987C45.2537 87.0228 45.3279 87.1653 45.3722 87.3182C45.4166 87.4711 45.4302 87.6312 45.4123 87.7894C45.3944 87.9476 45.3454 88.1006 45.268 88.2398Z" fill="#263238"/>
<path d="M71.7563 50.2293C71.7209 50.2936 64.3443 46.3057 55.2532 41.3025C46.1622 36.2993 38.8462 32.2012 38.8816 32.137C38.917 32.0727 46.2936 36.0606 55.3846 41.0638C64.4757 46.0669 71.7916 50.165 71.7563 50.2293Z" fill="#263238"/>
<path d="M72.4385 48.9891C72.4032 49.0534 65.0265 45.0655 55.9355 40.0623C46.8445 35.0591 39.5285 30.961 39.5639 30.8967C39.5993 30.8324 46.9759 34.8203 56.0669 39.8235C65.1579 44.8267 72.4815 48.911 72.4385 48.9891Z" fill="#263238"/>
<path d="M66.5509 59.6873C66.513 59.7562 59.1389 55.7637 50.0478 50.7605C40.9568 45.7573 33.6383 41.6638 33.6762 41.595C33.7141 41.5261 41.0882 45.5186 50.1792 50.5218C59.2703 55.525 66.5863 59.623 66.5509 59.6873Z" fill="#263238"/>
<path d="M67.2382 58.4383C67.2028 58.5026 59.8262 54.5147 50.7352 49.5115C41.6441 44.5083 34.3281 40.4102 34.3635 40.3459C34.3989 40.2817 41.7755 44.2695 50.8665 49.2727C59.9576 54.2759 67.2761 58.3694 67.2382 58.4383Z" fill="#263238"/>
<path d="M61.3456 69.1463C61.3077 69.2152 53.9336 65.2227 44.8425 60.2195C35.7515 55.2163 28.433 51.1228 28.4709 51.0539C28.5088 50.9851 35.8829 54.9776 44.9739 59.9807C54.065 64.9839 61.381 69.082 61.3456 69.1463Z" fill="#263238"/>
<path d="M62.0329 67.8973C61.9975 67.9616 54.6209 63.9737 45.5298 58.9705C36.4388 53.9673 29.1228 49.8692 29.1582 49.8049C29.1936 49.7406 36.5702 53.7285 45.6612 58.7317C54.7523 63.7349 62.0784 67.8146 62.0329 67.8973Z" fill="#263238"/>
<path d="M56.1377 78.6089C56.1024 78.6732 48.7257 74.6853 39.6347 69.6821C30.5437 64.6789 23.2277 60.5808 23.2631 60.5166C23.2984 60.4523 30.6776 64.4356 39.7686 69.4388C48.8597 74.4419 56.1756 78.54 56.1377 78.6089Z" fill="#263238"/>
<path d="M56.8276 77.3553C56.7922 77.4196 49.4156 73.4317 40.3245 68.4285C31.2335 63.4253 23.9175 59.3272 23.9529 59.2629C23.9883 59.1987 31.3649 63.1865 40.4559 68.1897C49.547 73.1929 56.8629 77.291 56.8276 77.3553Z" fill="#263238"/>
<path d="M56.7478 45.3914L49.9892 41.6719L49.0492 43.3799L55.8078 47.0994L56.7478 45.3914Z" fill="white"/>
<path d="M55.8165 47.1161L49.0304 43.3814L49.983 41.6504L56.7692 45.3851L55.8165 47.1161ZM49.066 43.371L55.8062 47.0805L56.7336 45.3954L49.9934 41.686L49.066 43.371Z" fill="#263238"/>
<g opacity="0.2">
<path d="M72.4436 48.9801L39.5689 30.8877L39.1393 31.6682L72.014 49.7606L72.4436 48.9801Z" fill="black"/>
</g>
<g opacity="0.2">
<path d="M67.261 58.397L34.3863 40.3047L33.9568 41.0852L66.8314 59.1776L67.261 58.397Z" fill="black"/>
</g>
<g opacity="0.2">
<path d="M62.0835 67.8052L29.2088 49.7129L28.7792 50.4934L61.6539 68.5858L62.0835 67.8052Z" fill="black"/>
</g>
<g opacity="0.2">
<path d="M56.9059 77.2134L24.0312 59.1211L23.6016 59.9016L56.4763 77.994L56.9059 77.2134Z" fill="black"/>
</g>
<defs>
<linearGradient id="paint0_linear_0_1" x1="46.1421" y1="20.0579" x2="34.5127" y2="78.9887" gradientUnits="userSpaceOnUse">
<stop stop-color="white"/>
<stop offset="1" stop-color="white"/>
</linearGradient>
</defs>
</svg>
