<svg width="16" height="16" viewBox="0 0 16 16" fill="none" xmlns="http://www.w3.org/2000/svg">
<path d="M8.00001 1.33398C4.32668 1.33398 1.33334 4.32732 1.33334 8.00065C1.33334 11.674 4.32668 14.6673 8.00001 14.6673C11.6733 14.6673 14.6667 11.674 14.6667 8.00065C14.6667 4.32732 11.6733 1.33398 8.00001 1.33398ZM11.1867 6.46732L7.40668 10.2473C7.31334 10.3407 7.18668 10.394 7.05334 10.394C6.92001 10.394 6.79334 10.3407 6.70001 10.2473L4.81334 8.36065C4.62001 8.16732 4.62001 7.84732 4.81334 7.65398C5.00668 7.46065 5.32668 7.46065 5.52001 7.65398L7.05334 9.18732L10.48 5.76065C10.6733 5.56732 10.9933 5.56732 11.1867 5.76065C11.38 5.95398 11.38 6.26732 11.1867 6.46732Z" fill="#19B36E"/>
</svg>
