<svg width="210" height="44" viewBox="0 0 210 44" fill="none" xmlns="http://www.w3.org/2000/svg">
<g clip-path="url(#clip0_54_2702)">
<path d="M0.299988 10.1H1.19999V9.29999H0.299988V10.1Z" fill="white"/>
<path d="M1.2 14.6C1.4 14.6 1.6 14.6 1.7 14.6C1.9 14.6 2 14.5 2.1 14.4C2.1 14.6 2.3 14.8 2.4 14.9C2.6 14.9 2.8 15 3.1 15H4H6.3C6.6 15 6.8 15 7 15C7.2 15 7.3 14.8 7.4 14.6C7.5 14.8 7.6 14.9 7.8 15C8 15 8.1 15 8.4 15H9.2C9.5 15 9.7 15 9.9 15C10.1 15 10.2 14.8 10.3 14.7C10.4 14.9 10.5 15 10.7 15.1C10.8 15.1 11 15.1 11.1 15.1H15.1V14.2H13.2C13.2 14.2 13.2 14.2 13.1 14.1C13.1 14.1 13 14.1 12.9 13.9C12.9 13.9 12.9 13.7 12.8 13.7C12.8 13.7 12.8 13.5 12.8 13.4C12.8 13.1 12.8 12.9 13 12.8C13.1 12.7 13.3 12.6 13.5 12.6C13.7 12.6 14.1 12.7 14.3 13H14.4L14.9 12.4C14.9 12.4 14.9 12.4 14.9 12.3C14.8 12.1 14.5 12 14.3 11.8C14 11.7 13.7 11.6 13.3 11.6C12.9 11.6 12.7 11.6 12.5 11.7C12.3 11.7 12.1 11.9 11.9 12.1C11.8 12.3 11.6 12.4 11.6 12.6C11.6 12.8 11.5 13 11.5 13.2C11.5 13.4 11.5 13.6 11.5 13.8C11.5 14 11.6 14.1 11.7 14.2H11H10.8C10.6 14.2 10.4 14.2 10.3 14.1C10.2 14.1 10.1 13.9 10.1 13.8V9.59998H9.1V13.5V13.8V14C9.1 14 9.1 14.1 9 14.2C9 14.2 8.9 14.2 8.8 14.2H8.5H8.3C8.1 14.2 8 14.2 7.8 14.1C7.7 14.1 7.6 13.9 7.6 13.8V11.8H6.6V13.6C6.6 13.8 6.6 14 6.6 14.1C6.6 14.2 6.4 14.3 6.3 14.3H5.8C5.8 14.3 5.7 14.3 5.6 14.3H4.5C4.5 14.3 4.4 14.3 4.3 14.3H4C3.9 14.3 3.8 14.3 3.7 14.3C3.7 14.3 3.7 14.1 3.7 13.9V11.3H2.7V11.7H1.8C1.6 11.7 1.4 11.7 1.2 11.7C1 11.7 0.8 11.9 0.6 12C0.4 12.1 0.3 12.3 0.2 12.5C0.1 12.7 0 13 0 13.3C0 13.6 2.23517e-08 13.9 0.1 14.1C0.1 14.3 0.3 14.5 0.5 14.6C0.7 14.7 0.8 14.8 1 14.9C1.2 14.9 1.4 14.9 1.6 14.9L1.2 14.6ZM0.9 12.4C1 12.4 1.2 12.3 1.4 12.3H2.1V12.9C2.1 13.2 2.1 13.4 1.9 13.5C1.7 13.6 1.6 13.7 1.4 13.7C1.2 13.7 1 13.7 0.9 13.6C0.8 13.6 0.7 13.3 0.7 13.1C0.7 12.9 0.7 12.6 0.9 12.5V12.4Z" fill="white"/>
<path d="M1.70001 10.1H2.60001V9.29999H1.70001V10.1Z" fill="white"/>
<path d="M6.70002 15.7H5.90002V16.5H6.70002V15.7Z" fill="white"/>
<path d="M7.20001 15.7V16.5H8.10001V15.7H7.20001Z" fill="white"/>
<path d="M12.9 10.5H14V9.69995H12.9V10.5Z" fill="white"/>
<path d="M19.7 14.9H20.5C20.5 15 20.5 15.2 20.5 15.3C20.5 15.3 20.5 15.4999 20.4 15.4999C20.3 15.4999 20.3 15.5 20.2 15.6C20.2 15.6 20 15.6 19.9 15.6H18.9V16.4999H20.1C20.7 16.4999 21.1 16.4 21.4 16.1C21.7 15.8 21.8 15.4 21.8 14.9V14.7H22.4H23.2C23.6 14.7 23.8 14.7 24 14.4C24.2 14.2 24.2 14 24.2 13.6V11.2H23.2V13.2C23.2 13.4 23.2 13.5 23.2 13.6C23.2 13.6 23 13.6 22.9 13.6H22.6H22.1V12.8C22.1 12.4 22.1 12.1 22 11.9C21.9 11.7 21.8 11.5 21.6 11.3C21.4 11.2 21.2 11.0999 21 10.9999C20.8 10.8999 20.5 10.9999 20.3 10.9999C20.1 10.9999 19.8 10.9999 19.6 10.9999C19.4 10.9999 19.2 11.2 19 11.3C18.8 11.5 18.7 11.7 18.6 11.9C18.5 12.1 18.4 12.5 18.4 12.8C18.4 13.4 18.5 13.9 18.8 14.2C19.1 14.5 19.5 14.6 20.1 14.6L19.7 14.9ZM19.3 12.4999C19.4 12.2999 19.6 12.3 19.8 12.3C20.3 12.3 20.5 12.6 20.5 13.1V13.9H19.8C19.6 13.9 19.4 13.9 19.3 13.7C19.2 13.6 19.1 13.4 19.1 13.1C19.1 12.8 19.1 12.5999 19.3 12.4999Z" fill="white"/>
<path d="M24 16.6V15.8H22.9V16.6H24Z" fill="white"/>
<path d="M25.3 9.09998V14.7H26.3V9.09998H25.3Z" fill="white"/>
<path d="M24.9 8.69997H26.8V8.29998H25.9C25.9 8.29998 25.8 8.19998 25.7 8.09998C25.6 7.99998 25.7 7.89998 25.7 7.79998C25.7 7.69998 25.7 7.59997 25.8 7.49997C25.8 7.49997 25.9 7.39997 26.1 7.39997C26.3 7.39997 26.4 7.39998 26.5 7.59998L26.7 7.29998C26.7 7.29998 26.5 7.09998 26.4 7.09998C26.3 7.09998 26.1 7.09998 25.9 7.09998C25.7 7.09998 25.6 7.09998 25.5 7.09998C25.4 7.09998 25.3 7.19998 25.2 7.29998C25.2 7.29998 25.1 7.49998 25 7.59998C25 7.69998 25 7.79997 25 7.89997C25 7.99997 25 8.09998 25 8.09998C25 8.09998 25 8.19998 25 8.29998H24.7V8.69997H24.9Z" fill="white"/>
<path d="M31.9 14.9H32.8C33.1 14.9 33.3 14.9 33.5 14.9C33.7 14.9 33.8 14.7 33.9 14.5C34 14.7 34.1 14.8 34.3 14.9C34.5 14.9 34.6 14.9 34.9 14.9C34.9 14.9 35.1 14.9 35.2 14.9C35.3 14.9 35.4 14.9 35.5 14.9C35.6 14.9 35.7 14.9 35.8 14.8C35.9 14.8 36 14.6 36 14.6C36.2 14.8 36.4 14.9 36.6 15C36.8 15 37.1 15.1 37.4 15.1C37.7 15.1 38 15.1 38.2 15C38.4 15 38.7 14.8 38.8 14.6C38.8 14.7 38.9 14.8 39 14.9C39 14.9 39.2 15 39.3 15.1C39.4 15.1 39.5 15.1 39.6 15.1C39.7 15.1 39.8 15.1 39.9 15.1H40.9C41.2 15.1 41.4 15.1 41.6 15.1C41.8 15.1 41.9 14.9 42 14.7C42 14.8 42.2 14.9 42.3 15C42.4 15 42.6 15.1 42.8 15.1H43.1C43.4 15.1 43.6 15.1 43.8 15.1C44 15.1 44.1 14.9 44.2 14.7C44.2 14.8 44.4 14.9 44.5 15C44.6 15 44.8 15.1 45 15.1H45.5C45.9 15.1 46.1 15.1 46.3 14.8C46.5 14.6 46.5 14.4 46.5 14V11.6H45.5V13.7C45.5 13.7 45.5 13.8 45.5 13.9C45.5 13.9 45.5 13.9 45.4 14C45.4 14 45.3 14 45.2 14C45.1 14 44.9 14 44.8 14C44.7 14 44.6 13.8 44.6 13.6V12.2H43.6V13.4C43.6 13.5 43.6 13.6 43.6 13.7C43.6 13.8 43.6 13.8 43.6 13.9C43.6 13.9 43.6 13.9 43.5 14C43.5 14 43.3 14 43.2 14C43.1 14 42.9 14 42.8 14C42.7 14 42.6 13.8 42.6 13.6V12.2H41.6V13.5C41.6 13.7 41.6 13.9 41.6 14C41.6 14.1 41.4 14.1 41.3 14.1H40.7H40.5C40.4 14.1 40.2 14.1 40.1 14C40.1 14 40 13.8 39.9 13.6V13.4C39.9 12.8 39.7 12.3 39.4 11.9C39.1 11.6 38.6 11.4 38 11.4C37.4 11.4 36.9 11.6 36.6 11.9C36.3 12.2 36.1 12.6 36.1 13.2V13.4C36.1 13.7 36.1 13.9 35.9 14C35.8 14.1 35.7 14.2 35.5 14.2H35.3H35.1C34.9 14.2 34.7 14.2 34.6 14.1C34.5 14.1 34.4 13.9 34.4 13.8V11.8H33.4V13.6C33.4 13.8 33.4 14 33.4 14.1C33.4 14.2 33.2 14.3 33.1 14.3H32.6H32.4C32.2 14.3 32 14.3 31.9 14.2C31.8 14.2 31.7 14 31.7 13.9V11.9H30.7V15C30.7 15.2 30.7 15.3 30.7 15.5C30.7 15.6 30.7 15.7 30.7 15.8C30.7 15.8 30.6 16 30.5 16C30.5 16 30.3 16 30.1 16H29.9V16.9H30.3C30.9 16.9 31.3 16.8 31.6 16.4C31.9 16 32 15.6 32 15C32 15 32.2 15 32.3 15C32.4 15 32.6 15 32.8 15L31.9 14.9ZM37.6 12.2C38.1 12.2 38.3 12.5 38.3 13.1C38.3 13.7 38.3 13.6 38.1 13.8C38 13.9 37.8 14 37.6 14C37.4 14 37.2 14 37.1 13.8C37 13.7 36.9 13.4 36.9 13.1C36.9 12.5 37.1 12.2 37.6 12.2Z" fill="white"/>
<path d="M33.2 16.7V15.9H32.3V16.7H33.2Z" fill="white"/>
<path d="M34.5 16.7V15.9H33.6V16.7H34.5Z" fill="white"/>
<path d="M51.3 10.1V9.29999H50.4V10.1H51.3Z" fill="white"/>
<path d="M51.8 10.1H52.7V9.29999H51.8V10.1Z" fill="white"/>
<path d="M57.5 11.6C57.3 11.5 57.2 11.4 56.9 11.3C56.7 11.3 56.4 11.3 56.1 11.3L57.4 9.79998V9.69997L56.7 9.09998H56.6L54.8 11.2C54.8 11.2 54.8 11.2 54.7 11.3V11.4V12.1H56C56.3 12.1 56.5 12.1 56.6 12.2C56.7 12.3 56.8 12.5 56.8 12.7V13.1C56.8 13.2 56.8 13.3 56.8 13.4C56.8 13.4 56.8 13.5 56.8 13.6C56.8 13.6 56.7 13.6 56.6 13.6C56.6 13.6 56.4 13.6 56.3 13.6H54.4H54.1C54 13.6 53.9 13.6 53.8 13.6C53.7 13.6 53.7 13.4 53.7 13.2V10.6H52.7V11H51.9C51.7 11 51.5 11 51.3 11C51.1 11 50.9 11.2 50.8 11.3C50.6 11.4 50.5 11.6 50.4 11.8C50.4 12 50.3 12.3 50.3 12.6C50.3 12.9 50.3 13.2 50.4 13.4C50.4 13.6 50.6 13.8 50.8 13.9C50.9 14 51.1 14.1 51.3 14.2C51.5 14.3 51.7 14.2 51.9 14.2C52.1 14.2 52.3 14.2 52.4 14.2C52.6 14.2 52.7 14.1 52.8 14C52.8 14.2 53 14.4 53.1 14.5C53.3 14.5 53.5 14.6 53.8 14.6H54.7H57.2C57.4 14.6 57.6 14.6 57.8 14.6C58 14.6 58.1 14.5 58.2 14.4C58.3 14.3 58.4 14.1 58.4 14C58.4 13.9 58.4 13.6 58.4 13.3V12.8C58.4 12.5 58.4 12.2 58.3 12C58.3 11.8 58.1 11.6 58 11.5L57.5 11.6ZM52.2 12.8C52.2 13.1 52.2 13.3 52 13.4C51.8 13.5 51.7 13.6 51.5 13.6C51.3 13.6 51.1 13.6 51 13.5C50.9 13.5 50.8 13.2 50.8 13C50.8 12.8 50.8 12.5 51 12.4C51.1 12.4 51.3 12.3 51.5 12.3H52.2V12.9V12.8Z" fill="white"/>
<path d="M58.8 16.6C59.4 16.6 59.8 16.5 60.1 16.1C60.4 15.7 60.5 15.3 60.5 14.7C60.6 14.7 60.7 14.7 60.9 14.7C61 14.7 61.2 14.7 61.4 14.7H62.4C62.7 14.7 62.9 14.7 63.1 14.7C63.3 14.7 63.4 14.5 63.5 14.3C63.5 14.4 63.7 14.5 63.8 14.6C63.9 14.6 64.1 14.7 64.3 14.7H64.6C64.9 14.7 65.1 14.7 65.3 14.7C65.5 14.7 65.6 14.5 65.7 14.3C65.7 14.4 65.9 14.5 66 14.6C66.1 14.6 66.3 14.7 66.5 14.7H67C67.4 14.7 67.6 14.7 67.8 14.4C67.9 14.2 68 14 68 13.6V11.2H67V13.3C67 13.3 67 13.4 67 13.5C67 13.5 67 13.5 66.9 13.6C66.9 13.6 66.8 13.6 66.7 13.6C66.6 13.6 66.4 13.6 66.3 13.6C66.2 13.6 66.1 13.4 66.1 13.2V11.8H65.1V13C65.1 13.1 65.1 13.2 65.1 13.3C65.1 13.3 65.1 13.4 65.1 13.5C65.1 13.5 65.1 13.5 65 13.6C65 13.6 64.8 13.6 64.7 13.6C64.6 13.6 64.4 13.6 64.3 13.6C64.2 13.6 64.1 13.4 64.1 13.2V11.8H63.1V13.1C63.1 13.3 63.1 13.5 63.1 13.6C63.1 13.6 62.9 13.7 62.8 13.7H62.2H62C61.8 13.7 61.6 13.7 61.5 13.6C61.4 13.6 61.3 13.4 61.3 13.3V11.3H60.3V14.4C60.3 14.6 60.3 14.7 60.3 14.9C60.3 15 60.3 15.1 60.3 15.2C60.3 15.2 60.2 15.4 60.1 15.4C60.1 15.4 59.9 15.4 59.7 15.4H59.5V16.3H59.9L58.8 16.6Z" fill="white"/>
<path d="M64 10.5H64.8V9.69995H64V10.5Z" fill="white"/>
<path d="M64.7 9.19996H65.6V8.39996H64.7V9.19996Z" fill="white"/>
<path d="M65.2 9.5V10.3H66.1V9.5H65.2Z" fill="white"/>
<path d="M71.8 14.9H75.2C75.3 14.9 75.4 14.9 75.6 14.9C75.7 14.9 75.8 14.9 76 14.9C76.1 14.9 76.2 14.9 76.3 14.8C76.5 14.8 76.7 14.9 76.9 15C77.1 15 77.4 15 77.6 15H78.7C78.7 15 78.7 15 78.8 15H79.6C80 15 80.2 15 80.4 14.7C80.6 14.5 80.6 14.3 80.6 13.9V9.29999H79.6V13.5C79.6 13.7 79.6 13.8 79.5 13.9C79.5 13.9 79.3 13.9 79.2 13.9H78.9H77.8C78 13.8 78.1 13.6 78.3 13.4C78.5 13.2 78.5 12.9 78.5 12.7C78.5 12.5 78.5 12.3 78.4 12.1C78.4 11.9 78.2 11.8 78 11.6C77.8 11.5 77.6 11.4 77.4 11.3C77.2 11.3 76.9 11.3 76.6 11.3C76.3 11.3 76.1 11.3 75.8 11.4C75.6 11.4 75.4 11.6 75.2 11.7C75 11.8 74.9 12 74.8 12.2C74.8 12.4 74.7 12.6 74.7 12.8C74.7 13 74.7 13.3 74.9 13.5C75 13.7 75.2 13.9 75.4 14H72.7C72.7 14 72.6 14 72.5 14C72.5 14 72.5 14 72.4 13.9C72.4 13.9 72.4 13.8 72.4 13.7V12.2H71.4V14.1C71.4 14.5 71.4 14.7 71.6 14.9C71.8 15.1 72 15.2 72.4 15.2L71.8 14.9ZM75.9 12.2C76 12.1 76.2 12 76.4 12C76.4 12 76.6 12 76.7 12C76.7 12 76.9 12 76.9 12.1C76.9 12.2 77 12.2 77.1 12.3C77.1 12.3 77.1 12.5 77.1 12.6C77.1 12.9 77.1 13.1 76.9 13.2C76.8 13.4 76.6 13.5 76.4 13.6C76.2 13.6 76.1 13.4 75.9 13.2C75.8 13 75.7 12.8 75.7 12.6C75.7 12.4 75.7 12.2 75.9 12.1V12.2Z" fill="white"/>
<path d="M75.8 10.5H76.9V9.69995H75.8V10.5Z" fill="white"/>
<path d="M82.7 14.9H83.5H86.1C86.4 14.9 86.6 14.9 86.8 14.8C87 14.8 87.2 14.6 87.3 14.4C87.4 14.6 87.6 14.7 87.7 14.8C87.8 14.9 88.1 14.8 88.3 14.8H89.4C89.7 14.8 90 14.8 90.2 14.5C90.4 14.3 90.4 14.1 90.4 13.7V11.3H89.4V13.3C89.4 13.5 89.4 13.6 89.3 13.6C89.3 13.6 89.1 13.7 89 13.7H88.3C88.1 13.7 87.9 13.7 87.8 13.6C87.8 13.6 87.6 13.4 87.6 13.3C87.6 12.9 87.6 12.6 87.5 12.3C87.5 12.1 87.3 11.8 87.2 11.6C87 11.4 86.8 11.3 86.6 11.2C86.3 11.1 86 11 85.6 11C85.2 11 84.9 11 84.7 11.2C84.4 11.3 84.2 11.5 84 11.7C84 11.7 84 11.7 84 11.8L84.5 12.4C84.5 12.4 84.5 12.4 84.6 12.4C84.7 12.3 84.8 12.2 85 12.1C85.2 12 85.3 12 85.5 12C85.7 12 85.8 12 85.9 12C86 12 86.1 12.1 86.2 12.2C86.2 12.2 86.3 12.4 86.3 12.5C86.3 12.6 86.3 12.8 86.3 12.9C86.3 13 86.3 13.1 86.3 13.2V13.4C86.3 13.4 86.2 13.4 86.1 13.5C86.1 13.5 85.9 13.5 85.8 13.5H83.7H83.5C83.4 13.5 83.3 13.5 83.2 13.5C83.1 13.5 83.1 13.3 83.1 13.1V8.89996H82.1V13.5C82.1 13.9 82.1 14.1 82.3 14.3C82.4 14.5 82.7 14.6 83.1 14.6L82.7 14.9Z" fill="white"/>
<path d="M90.9 9.5H90V10.3H90.9V9.5Z" fill="white"/>
<path d="M88.8 10.5H89.6V9.69995H88.8V10.5Z" fill="white"/>
<path d="M4.49998 26.8H3.59998V27.6H4.49998V26.8Z" fill="white"/>
<path d="M5.99998 21.1C5.69998 21 5.39998 20.9 4.99998 20.9C4.59998 20.9 4.49998 20.9 4.29998 21C4.09998 21 3.89998 21.2 3.69998 21.3C3.49998 21.4 3.39998 21.6 3.29998 21.8C3.29998 22 3.19998 22.2 3.19998 22.5C3.19998 22.8 3.19998 22.9 3.29998 23.1C3.29998 23.3 3.49998 23.4 3.59998 23.6C3.69998 23.7 3.89998 23.9 4.09998 24C4.29998 24 4.39998 24.2 4.49998 24.3C4.59998 24.3 4.69998 24.5 4.79998 24.6C4.89998 24.7 4.89998 24.8 4.89998 24.8C4.89998 24.8 4.89998 25 4.69998 25.1C4.59998 25.1 4.39998 25.2 4.09998 25.2H2.59998C2.39998 25.2 2.29998 25.2 2.09998 25.2C1.89998 25.2 1.79998 25.2 1.69998 25C1.59998 25 1.49998 24.8 1.39998 24.7C1.29998 24.6 1.29998 24.4 1.29998 24.2C1.29998 24 1.29998 23.7 1.29998 23.5C1.29998 23.3 1.39998 23.1 1.49998 23L0.599976 22.7H0.499976C0.399976 22.9 0.199976 23.2 0.199976 23.5C0.199976 23.8 0.0999756 24.1 0.0999756 24.4C0.0999756 25 0.299976 25.5 0.699976 25.8C1.09998 26.1 1.69998 26.3 2.49998 26.3H4.49998C5.09998 26.3 5.59998 26.2 5.89998 25.9C6.19998 25.7 6.29998 25.3 6.29998 24.9C6.29998 24.5 6.29998 24.5 6.19998 24.4C6.09998 24.2 5.99998 24.1 5.79998 24C5.69998 23.9 5.49998 23.8 5.29998 23.6C5.09998 23.5 4.99998 23.4 4.79998 23.3C4.69998 23.3 4.49998 23.1 4.39998 23C4.39998 22.9 4.29998 22.8 4.29998 22.6C4.29998 22.4 4.29998 22.3 4.49998 22.2C4.59998 22.1 4.79998 22.1 4.99998 22.1C5.19998 22.1 5.29998 22.1 5.39998 22.1C5.49998 22.1 5.59998 22.2 5.79998 22.3H5.89998L6.49998 21.7C6.29998 21.5 6.09998 21.4 5.89998 21.2L5.99998 21.1Z" fill="white"/>
<path d="M3.20002 26.8H2.40002V27.6H3.20002V26.8Z" fill="white"/>
<path d="M18.2 25.1H20.7C21 25.1 21.3 25.1 21.5 24.8C21.6 24.6 21.7 24.4 21.7 24V21.6H20.7V23.6C20.7 23.8 20.7 23.9 20.6 23.9C20.5 23.9 20.4 24 20.3 24H19.8C19.8 24 19.7 24 19.6 24H10.3C10.3 24 10.2 24 10.1 24H9.90002C9.70002 24 9.50002 24 9.40002 23.9C9.30002 23.9 9.20002 23.7 9.20002 23.6V21.6H8.20002V24.7C8.20002 24.9 8.20002 25 8.20002 25.2C8.20002 25.3 8.20002 25.4 8.20002 25.5C8.20002 25.5 8.20002 25.7 8.00002 25.7C7.80002 25.7 7.80002 25.7 7.60002 25.7H7.40002V26.6H7.80002C8.40002 26.6 8.80002 26.5 9.10002 26.1C9.40002 25.8 9.50002 25.3 9.50002 24.7C9.50002 24.7 9.70002 24.7 9.80002 24.7C9.90002 24.7 10.1 24.7 10.3 24.7H18.6L18.2 25.1Z" fill="white"/>
<path d="M21.1 25.9V26.7H22V25.9H21.1Z" fill="white"/>
<path d="M20.8 26.8V26H20V26.8H20.8Z" fill="white"/>
<path d="M23.2 21.6V24.7C23.2 24.9 23.2 25 23.2 25.2C23.2 25.3 23.2 25.4 23.2 25.5C23.2 25.5 23.2 25.7 23 25.7C23 25.7 22.8 25.7 22.6 25.7H22.4V26.6H22.8C23.4 26.6 23.8 26.5 24.1 26.1C24.4 25.8 24.5 25.3 24.5 24.7C24.6 24.7 24.7 24.7 24.9 24.7C25.1 24.7 25.2 24.7 25.4 24.7H28C28.2 24.7 28.4 24.7 28.6 24.7C28.8 24.7 28.9 24.6 29 24.4C29.1 24.3 29.2 24.1 29.3 23.9C29.3 23.7 29.3 23.4 29.3 23C29.3 22.6 29.3 22.5 29.2 22.2C29.2 22 29 21.7 28.9 21.6C28.7 21.4 28.5 21.3 28.3 21.2C28 21.1 27.7 21 27.4 21C27.1 21 26.7 21 26.4 21.2C26.2 21.3 25.9 21.5 25.7 21.7C25.7 21.7 25.7 21.7 25.7 21.8L26.2 22.4C26.2 22.4 26.2 22.4 26.3 22.4C26.4 22.3 26.5 22.2 26.7 22.1C26.9 22.1 27 22 27.2 22C27.4 22 27.5 22 27.6 22C27.7 22 27.8 22.1 27.9 22.2C27.9 22.2 28 22.4 28 22.5C28 22.6 28 22.7 28 22.8C28 22.9 28 23.1 28 23.2C28 23.2 28 23.4 27.9 23.4C27.9 23.4 27.8 23.4 27.7 23.5C27.7 23.5 27.5 23.5 27.4 23.5H25.3H25.1C24.9 23.5 24.8 23.5 24.6 23.4C24.5 23.4 24.4 23.2 24.4 23.1V21.1H23.4L23.2 21.6Z" fill="white"/>
<path d="M32 24.9C32 25.2 32 25.6 32.2 25.8C32.3 26.1 32.5 26.3 32.7 26.4C32.9 26.6 33.1 26.7 33.4 26.8C33.7 26.8 33.9 26.9 34.2 26.9C34.5 26.9 34.8 26.9 35 26.8C35.2 26.7 35.5 26.6 35.7 26.4C35.9 26.2 36.1 26 36.2 25.8C36.3 25.5 36.4 25.2 36.4 24.9V19.4H35.4V24.9C35.4 25.3 35.4 25.5 35.2 25.7C35 25.9 34.8 25.9 34.5 25.9C34.2 25.9 34.3 25.9 34.1 25.9C34 25.9 33.9 25.8 33.8 25.7C33.8 25.7 33.6 25.5 33.6 25.4C33.6 25.3 33.6 25.1 33.6 24.9C33.6 24.7 33.6 24.4 33.7 24.2C33.7 24 33.8 23.8 33.9 23.7L33 23.4H32.9C32.7 23.6 32.6 23.9 32.5 24.2C32.5 24.5 32.4 24.8 32.4 25.1L32 24.9Z" fill="white"/>
<path d="M51.6 24.6C51.6 24.7 51.8 24.8 51.8 24.9C51.8 24.9 52 25 52.1 25C52.1 25 52.3 25 52.4 25C52.5 25 52.6 25 52.7 25H55.2C55.4 25 55.6 25 55.8 25C56 25 56.1 24.9 56.3 24.7C56.4 24.6 56.5 24.4 56.6 24.2C56.6 24 56.7 23.7 56.7 23.3C56.7 22.9 56.7 22.8 56.6 22.5C56.6 22.3 56.4 22 56.3 21.9C56.1 21.7 55.9 21.6 55.7 21.5C55.4 21.4 55.1 21.3 54.8 21.3C54.5 21.3 54.1 21.3 53.8 21.5C53.6 21.6 53.3 21.8 53.1 22C53.1 22 53.1 22 53.1 22.1L53.6 22.7C53.6 22.7 53.6 22.7 53.7 22.7C53.8 22.6 53.9 22.5 54.1 22.4C54.3 22.4 54.4 22.3 54.6 22.3C54.8 22.3 54.9 22.3 55 22.3C55.1 22.3 55.2 22.4 55.3 22.5C55.3 22.5 55.4 22.7 55.4 22.8C55.4 22.9 55.4 23 55.4 23.1C55.4 23.2 55.4 23.4 55.4 23.5V23.7C55.4 23.7 55.3 23.7 55.2 23.8C55.2 23.8 55 23.8 54.9 23.8H52.8H52.6C52.4 23.8 52.3 23.8 52.2 23.7C52.2 23.7 52.1 23.5 52 23.3V23.1C52 22.4 51.8 22 51.5 21.6C51.2 21.3 50.7 21.1 50.1 21.1C49.5 21.1 49 21.3 48.7 21.6C48.4 21.9 48.2 22.3 48.2 22.9V23.1C48.2 23.4 48.2 23.6 48 23.7C48 23.8 47.8 23.9 47.7 23.9H47.5C47.5 23.9 47.4 23.9 47.3 23.9H39.4C39.4 23.9 39.3 23.9 39.2 23.9H39C38.9 23.9 38.8 23.9 38.7 23.8C38.6 23.7 38.6 23.6 38.6 23.5V19.3H37.6V23.9C37.6 24.3 37.6 24.5 37.8 24.7C37.9 24.9 38.2 25 38.6 25H39.4H47.7C47.7 25 47.8 25 47.9 25C48 25 48.1 25 48.2 25C48.3 25 48.4 25 48.5 24.9C48.5 24.9 48.7 24.8 48.7 24.7C48.9 24.9 49.1 25 49.3 25.1C49.5 25.2 49.8 25.2 50.1 25.2C50.4 25.2 50.7 25.2 50.9 25.1C51.1 25.1 51.4 24.9 51.5 24.7L51.6 24.6ZM50.6 24C50.5 24.1 50.3 24.2 50.1 24.2C49.9 24.2 49.7 24.2 49.6 24C49.5 23.9 49.4 23.6 49.4 23.3C49.4 22.7 49.6 22.4 50.1 22.4C50.6 22.4 50.8 22.7 50.8 23.3C50.8 23.9 50.8 23.8 50.6 24Z" fill="white"/>
<path d="M55.4 26.8V26H54.3V26.8H55.4Z" fill="white"/>
<path d="M61.7 19.3V20.1H62.6V19.3H61.7Z" fill="white"/>
<path d="M60.4 19.3V20.1H61.3V19.3H60.4Z" fill="white"/>
<path d="M64 25.1H72.2H74.7C74.9 25.1 75.1 25.1 75.3 25.1C75.5 25.1 75.6 25 75.7 24.9C75.8 24.8 75.9 24.6 75.9 24.4C75.9 24.2 75.9 24 75.9 23.7V23.2C75.9 22.9 75.9 22.6 75.8 22.4C75.8 22.2 75.6 22 75.5 21.9C75.3 21.8 75.1 21.7 74.9 21.6C74.7 21.6 74.4 21.6 74.1 21.6L75.4 20.1V20L74.7 19.4H74.6L72.8 21.5C72.8 21.5 72.8 21.5 72.7 21.6V21.7V22.4H74C74.3 22.4 74.5 22.4 74.6 22.6C74.7 22.8 74.8 22.9 74.8 23.1V23.5C74.8 23.6 74.8 23.7 74.8 23.8C74.8 23.8 74.8 23.9 74.8 24C74.8 24 74.7 24 74.6 24C74.6 24 74.4 24 74.3 24H72.4C72.4 24 72.3 24 72.2 24H64.2C64.2 24 64.1 24 64 24H63.7C63.6 24 63.5 24 63.4 23.9C63.3 23.8 63.4 23.7 63.4 23.6V21H62.4V21.4H61.5C61.3 21.4 61.1 21.4 60.9 21.4C60.7 21.4 60.5 21.5 60.4 21.7C60.2 21.8 60.1 22 60 22.2C59.9 22.4 59.8 22.7 59.8 23C59.8 23.3 59.8 23.6 59.9 23.8C59.9 24 60.1 24.2 60.3 24.3C60.5 24.4 60.6 24.5 60.8 24.6C61 24.6 61.2 24.6 61.4 24.6C61.6 24.6 61.7 24.6 61.9 24.6C62.1 24.6 62.2 24.5 62.3 24.4C62.3 24.6 62.5 24.8 62.6 24.9C62.8 24.9 63 25 63.3 25H64.2L64 25.1ZM62.1 23C62.1 23.3 62.1 23.4 61.9 23.6C61.8 23.7 61.6 23.8 61.4 23.8C61.2 23.8 61 23.8 60.9 23.7C60.8 23.6 60.7 23.4 60.7 23.2C60.7 23 60.7 22.7 60.9 22.6C61 22.5 61.2 22.4 61.4 22.4H62.1V23Z" fill="white"/>
<path d="M83.8 24.7C83.8 24.8 84 24.9 84.1 25C84.2 25 84.4 25.1 84.6 25.1H85.1C85.5 25.1 85.7 25.1 85.9 24.8C86.1 24.6 86.1 24.4 86.1 24V21.6H85.1V23.8C85.1 23.8 85.1 23.9 85.1 24C85.1 24 85.1 24 85 24.1C84.9 24.2 84.9 24.1 84.8 24.1C84.7 24.1 84.5 24.1 84.4 24.1C84.3 24.1 84.2 23.9 84.2 23.7V22.3H83.2V23.5C83.2 23.6 83.2 23.7 83.2 23.8C83.2 23.9 83.2 23.9 83.2 24C83.2 24 83.2 24 83.1 24C83.1 24 82.9 24 82.8 24C82.7 24 82.5 24 82.4 24C82.3 24 82.2 23.8 82.2 23.6V22.2H81.2V23.5C81.2 23.7 81.2 23.9 81.2 24C81.2 24 81 24.1 80.9 24.1H80.3H80.1C79.9 24.1 79.8 24.1 79.6 24C79.5 24 79.4 23.8 79.4 23.7V21.7H78.4V24.8C78.4 25 78.4 25.1 78.4 25.3C78.4 25.4 78.4 25.5 78.4 25.6C78.4 25.6 78.3 25.8 78.2 25.8C78.2 25.8 78 25.8 77.8 25.8H77.6V26.7H78C78.6 26.7 79 26.6 79.3 26.2C79.5 25.9 79.7 25.4 79.7 24.8C79.7 24.8 79.9 24.8 80 24.8C80.1 24.8 80.3 24.8 80.5 24.8H81.5C81.8 24.8 82 24.8 82.2 24.8C82.4 24.8 82.5 24.6 82.6 24.4C82.6 24.5 82.8 24.6 82.9 24.7C83 24.8 83.2 24.8 83.4 24.8H83.7C84 24.8 84.2 24.8 84.4 24.8C84.6 24.8 84.7 24.6 84.8 24.4L83.8 24.7Z" fill="white"/>
<path d="M82.2 19.7V20.5H83V19.7H82.2Z" fill="white"/>
<path d="M83.5 20.7H84.4V19.9H83.5V20.7Z" fill="white"/>
<path d="M83.8 19.4V18.6H83V19.4H83.8Z" fill="white"/>
<path d="M89.2 25.9C89.1 25.9 89 26 88.8 26C88.7 26 88.5 26 88.4 26C88.3 26 88.2 26 88 26C87.8 26 87.7 26 87.5 26V26.9C87.6 26.9 87.8 26.9 87.9 26.9C88 26.9 88.2 26.9 88.3 26.9C88.6 26.9 88.9 26.9 89.2 26.8C89.5 26.7 89.7 26.6 89.9 26.5C90.1 26.4 90.2 26.1 90.4 25.9C90.5 25.6 90.6 25.3 90.6 25V23.1C90.6 22.9 90.6 22.6 90.5 22.4C90.4 22.2 90.3 22 90.2 21.9C90.1 21.7 89.9 21.6 89.7 21.5C89.5 21.5 89.3 21.4 89 21.4C88.7 21.4 88.5 21.4 88.3 21.6C88.1 21.6 87.9 21.8 87.7 22C87.5 22.2 87.4 22.4 87.3 22.6C87.3 22.8 87.2 23.1 87.2 23.4C87.2 23.7 87.2 23.8 87.2 24C87.2 24.2 87.4 24.4 87.5 24.5C87.6 24.7 87.8 24.8 88.1 24.9C88.3 25 88.6 25.1 89 25.1H89.6C89.6 25.3 89.6 25.4 89.5 25.6C89.5 25.7 89.3 25.8 89.2 25.9ZM89 24.1C88.9 24.1 88.8 24.1 88.7 24.1C88.6 24.1 88.5 24.1 88.4 23.9C88.4 23.9 88.2 23.7 88.2 23.6C88.2 23.5 88.2 23.4 88.2 23.2C88.2 23 88.2 22.9 88.2 22.8C88.2 22.7 88.2 22.6 88.4 22.5C88.4 22.5 88.6 22.4 88.6 22.3C88.6 22.3 88.8 22.3 88.9 22.3C89.1 22.3 89.3 22.3 89.4 22.6C89.5 22.8 89.6 23 89.6 23.4V24.2H89V24.1Z" fill="white"/>
<path d="M17.6 29.7V30.5H18.4V29.7H17.6Z" fill="white"/>
<path d="M19 29.6V30.4H19.9V29.6H19Z" fill="white"/>
<path d="M24 36.1H23.1V36.9H24V36.1Z" fill="white"/>
<path d="M22.7 36.1H21.9V36.9H22.7V36.1Z" fill="white"/>
<path d="M29.9 31.7V33.8C29.9 33.8 29.9 33.9 29.9 34C29.9 34 29.9 34 29.8 34.1C29.8 34.1 29.7 34.1 29.6 34.1C29.5 34.1 29.3 34.1 29.2 34.1C29.1 34.1 29 33.9 29 33.7V32.3H28V33.5C28 33.6 28 33.7 28 33.8C28 33.9 28 33.9 28 34C28 34 28 34 27.9 34.1C27.9 34.1 27.7 34.1 27.6 34.1C27.5 34.1 27.3 34.1 27.2 34.1C27.1 34.1 27 33.9 27 33.7V32.3H26V33.6C26 33.8 26 34 26 34.1C26 34.2 25.9 34.2 25.7 34.2H25.1H24.9C24.7 34.2 24.6 34.2 24.4 34.1C24.3 34.1 24.2 33.9 24.2 33.8V31.8H23.2V33.6C23.2 33.8 23.2 34 23.2 34.1C23.2 34.2 23 34.3 22.9 34.3H22.4H22.1C22 34.3 21.9 34.3 21.8 34.3C21.7 34.3 21.8 34.1 21.8 33.9V31.3H20.8V31.7H20C19.8 31.7 19.6 31.7 19.4 31.7C19.2 31.7 19 31.9 18.8 32C18.6 32.1 18.5 32.3 18.4 32.5C18.3 32.7 18.2 33 18.2 33.3C18.2 33.6 18.2 33.9 18.3 34.1C18.3 34.3 18.5 34.5 18.7 34.6C18.9 34.7 19 34.8 19.2 34.9C19.4 34.9 19.6 34.9 19.8 34.9C20 34.9 20.1 34.9 20.3 34.9C20.5 34.9 20.6 34.8 20.7 34.7C20.7 34.9 20.9 35.1 21 35.2C21.2 35.2 21.4 35.3 21.7 35.3H22.6H23.5C23.8 35.3 24 35.3 24.2 35.3C24.4 35.3 24.5 35.1 24.6 34.9C24.7 35.1 24.8 35.2 25 35.3C25.2 35.3 25.3 35.3 25.6 35.3H26.6C26.9 35.3 27.1 35.3 27.3 35.3C27.5 35.3 27.6 35.1 27.7 34.9C27.7 35 27.9 35.1 28 35.2C28.1 35.2 28.3 35.3 28.5 35.3H28.8C29.1 35.3 29.3 35.3 29.5 35.3C29.7 35.3 29.8 35.1 29.9 34.9C29.9 35 30.1 35.1 30.2 35.2C30.3 35.2 30.5 35.3 30.7 35.3H31.2C31.6 35.3 31.8 35.3 32 35C32.2 34.8 32.2 34.6 32.2 34.2V31.8H31.2L29.9 31.7ZM19.4 33.2C19.4 33.5 19.4 33.7 19.2 33.8C19 33.9 18.9 34 18.7 34C18.5 34 18.3 34 18.2 33.9C18.1 33.9 18 33.6 18 33.4C18 33.2 18 32.9 18.2 32.8C18.3 32.8 18.5 32.7 18.7 32.7H19.4V33.3V33.2Z" fill="white"/>
<path d="M36.8 30.8H37.9V30H36.8V30.8Z" fill="white"/>
<path d="M44.7 29.5V33.7C44.7 33.9 44.7 34 44.7 34.1C44.7 34.2 44.5 34.1 44.4 34.1H44.1H43.3C43.3 34.1 43.4 33.9 43.5 33.7C43.5 33.5 43.5 33.3 43.5 33.1C43.5 32.8 43.5 32.5 43.4 32.3C43.3 32.1 43.2 31.9 43 31.8C42.8 31.7 42.6 31.6 42.4 31.5C42.2 31.5 41.9 31.5 41.7 31.5C41.5 31.5 41.3 31.5 41 31.5C40.8 31.5 40.6 31.7 40.4 31.8C40.2 31.9 40.1 32.1 40 32.4C39.9 32.7 39.8 32.9 39.8 33.3V34.1H38.9C38.7 34.1 38.5 34.1 38.4 34C38.3 34 38.2 33.8 38.2 33.7V31.7H37.4C37.4 31.7 37.3 31.7 37.2 31.7H37.1V33.5C37.1 33.7 37.1 33.9 37.1 34C37.1 34.1 36.9 34.2 36.8 34.2H36.5H36.3C36.1 34.2 36 34.2 35.8 34.1C35.7 34.1 35.6 33.9 35.6 33.8V33.1C35.6 32.5 35.5 32.1 35.2 31.9C34.9 31.7 34.5 31.6 34 31.6H32.7V32.5H33.7C34 32.5 34.2 32.5 34.3 32.6C34.4 32.7 34.5 32.9 34.5 33.1V33.6C34.5 33.7 34.5 33.8 34.5 33.9C34.5 33.9 34.5 34 34.5 34.1C34.5 34.1 34.4 34.1 34.3 34.2C34.3 34.2 34.1 34.2 34 34.2H32.5V35.1H34.6C34.9 35.1 35.1 35.1 35.3 35C35.5 35 35.6 34.8 35.7 34.6C35.8 34.8 35.9 34.9 36.1 35C36.3 35.1 36.5 35 36.7 35H37.4C37.7 35 37.9 35 38.1 35C38.3 35 38.4 34.8 38.5 34.7C38.6 34.9 38.7 35 38.9 35C39 35 39.2 35 39.3 35H40V35.5C40 35.7 40 36 40.1 36.1C40.1 36.3 40.3 36.4 40.5 36.5C40.7 36.6 40.9 36.7 41.1 36.7C41.3 36.7 41.6 36.7 41.8 36.7C42 36.7 42.3 36.7 42.5 36.7C42.7 36.7 42.9 36.6 43.1 36.5C43.3 36.4 43.4 36.3 43.5 36.1C43.5 35.9 43.6 35.8 43.6 35.5C43.6 35.2 43.6 35.3 43.6 35.2C43.6 35.1 43.6 35 43.5 34.9H44.3H45.2C45.6 34.9 45.8 34.9 46 34.6C46.2 34.4 46.2 34.2 46.2 33.8V29.2H45.2L44.7 29.5ZM41.9 36.1C41.9 36.1 41.7 36.2 41.4 36.2C41.2 36.2 41 36.2 40.9 36.1C40.8 36.1 40.7 35.9 40.7 35.7V35.3H41.3C41.6 35.3 41.8 35.3 41.9 35.4C41.9 35.4 42 35.6 42 35.7C42 35.8 42 35.9 41.9 36V36.1ZM42 34.1C42 34.3 41.7 34.3 41.5 34.3H40.8V33.4C40.8 33.1 40.8 32.9 41 32.8C41.1 32.7 41.3 32.6 41.5 32.6C41.7 32.6 41.9 32.6 42 32.8C42.1 32.9 42.2 33.1 42.2 33.4C42.2 33.7 42.2 33.9 42 34V34.1Z" fill="white"/>
<path d="M47.9 29.6H46.9V35.2H47.9V29.6Z" fill="white"/>
<path d="M56.2 31.8V33.8C56.2 34 56.2 34.1 56.2 34.2C56.2 34.2 56 34.2 55.9 34.2H52.7C52.6 34.2 52.5 34.2 52.4 34.2C52.3 34.2 52.4 34 52.4 33.8V32.3H51.4V34.2C51.4 34.6 51.4 34.8 51.6 35C51.8 35.2 52 35.3 52.4 35.3H56.8C57.2 35.3 57.4 35.3 57.6 35C57.7 34.8 57.8 34.6 57.8 34.2V31.8H56.8H56.2Z" fill="white"/>
<path d="M54.3 30.5V31.3H55.2V30.5H54.3Z" fill="white"/>
<path d="M53.1 30.4V31.2H53.9V30.4H53.1Z" fill="white"/>
<path d="M59.4 29.6H58.4V35.2H59.4V29.6Z" fill="white"/>
<path d="M62.1 31.8H61.1V35.3C61.1 35.5 61.1 35.7 60.9 35.8C60.7 35.9 60.6 36 60.4 36H60.2V36.9H60.6C61.1 36.9 61.6 36.8 61.8 36.5C62 36.2 62.2 35.8 62.2 35.2V31.7L62.1 31.8Z" fill="white"/>
<path d="M67.7 29.9V30.7H68.5V29.9H67.7Z" fill="white"/>
<path d="M69 30.9H69.9V30.1H69V30.9Z" fill="white"/>
<path d="M69.3 29.6V28.8H68.4V29.6H69.3Z" fill="white"/>
<path d="M72.8 30V30.8H73.6V30H72.8Z" fill="white"/>
<path d="M74.2 29.9V30.7H75.1V29.9H74.2Z" fill="white"/>
<path d="M82 31.7H81V33.8C81 33.8 81 33.9 81 34C81 34 81 34 80.9 34.1C80.9 34.1 80.8 34.1 80.7 34.1C80.6 34.1 80.4 34.1 80.3 34.1C80.2 34.1 80.1 33.9 80.1 33.7V32.3H79.1V33.5C79.1 33.6 79.1 33.7 79.1 33.8C79.1 33.9 79.1 33.9 79.1 34C79.1 34 79.1 34 79 34.1C79 34.1 78.8 34.1 78.7 34.1C78.6 34.1 78.4 34.1 78.3 34.1C78.2 34.1 78.1 33.9 78.1 33.7V32.3H77.1V33.6C77.1 33.8 77.1 34 77.1 34.1C77.1 34.1 76.9 34.2 76.8 34.2H76.2H76C75.8 34.2 75.6 34.2 75.5 34.1C75.4 34.1 75.3 33.9 75.3 33.8V31.8H74.3V33.6C74.3 33.8 74.3 34 74.3 34.1C74.3 34.2 74.1 34.3 74 34.3H73.3C73.1 34.3 73 34.3 72.8 34.2C72.7 34.2 72.6 34 72.6 33.9V31.9H71.6V34C71.6 34 71.6 34.1 71.6 34.2C71.6 34.2 71.6 34.2 71.5 34.3C71.5 34.3 71.4 34.3 71.3 34.3C71.2 34.3 71 34.3 70.9 34.3C70.8 34.3 70.7 34.1 70.7 33.9V32.5H69.7V33.7C69.7 33.8 69.7 33.9 69.7 34C69.7 34.1 69.7 34.1 69.7 34.2C69.7 34.2 69.7 34.2 69.6 34.3C69.6 34.3 69.4 34.3 69.3 34.3C69.2 34.3 69 34.3 68.9 34.3C68.8 34.3 68.7 34.1 68.7 33.9V32.5H67.7V33.8C67.7 34 67.7 34.2 67.7 34.3C67.7 34.3 67.6 34.4 67.4 34.4H66.8H66.6C66.5 34.4 66.4 34.4 66.3 34.4C66.2 34.4 66.3 34.2 66.3 34V29.8H65.3V34.4C65.3 34.8 65.3 35 65.5 35.2C65.7 35.4 65.9 35.5 66.3 35.5H67.1H68.1C68.4 35.5 68.6 35.5 68.8 35.5C69 35.5 69.1 35.3 69.2 35.1C69.2 35.2 69.4 35.3 69.5 35.4C69.6 35.4 69.8 35.5 70 35.5H70.3C70.6 35.5 70.8 35.5 71 35.5C71.2 35.5 71.3 35.3 71.4 35.1C71.4 35.2 71.6 35.3 71.7 35.4C71.8 35.4 72 35.5 72.2 35.5H72.7C72.9 35.5 73.1 35.5 73.2 35.5C73.4 35.5 73.5 35.3 73.6 35.2C73.7 35.4 73.8 35.5 74 35.5C74.1 35.5 74.3 35.5 74.4 35.5H75.3C75.6 35.5 75.8 35.5 76 35.5C76.2 35.5 76.3 35.3 76.4 35.1C76.5 35.3 76.6 35.4 76.8 35.5C77 35.5 77.1 35.5 77.4 35.5H78.4C78.7 35.5 78.9 35.5 79.1 35.5C79.3 35.5 79.4 35.3 79.5 35.1C79.5 35.2 79.7 35.3 79.8 35.4C79.9 35.4 80.1 35.5 80.3 35.5H80.6C80.9 35.5 81.1 35.5 81.3 35.5C81.5 35.5 81.6 35.3 81.7 35.1C81.7 35.2 81.9 35.3 82 35.4C82.1 35.4 82.3 35.5 82.5 35.5H83C83.4 35.5 83.6 35.5 83.8 35.2C84 34.9 84 34.8 84 34.4V32L82 31.7Z" fill="white"/>
<path d="M90.5 29.5H89.5V33.7C89.5 33.9 89.5 34 89.4 34.1C89.4 34.1 89.2 34.1 89.1 34.1H88.8H88.6C88.4 34.1 88.3 34.1 88.2 34C88.1 34 88 33.8 88 33.7V29.4H87V33.6C87 33.8 87 33.9 86.9 34C86.9 34 86.7 34 86.6 34H85.8V30.5H84.8V34H83.5V34.9H87.3C87.6 34.9 87.8 34.9 88 34.9C88.2 34.9 88.3 34.7 88.4 34.6C88.5 34.8 88.6 34.9 88.8 35C89 35 89.1 35 89.3 35H90.2C90.6 35 90.8 35 91 34.7C91.2 34.5 91.2 34.3 91.2 33.9V29.3L90.5 29.5Z" fill="white"/>
<path d="M102.553 29.8801H108.686C110.682 34.4441 114.319 36.3695 118.455 36.5122C122.164 36.7261 124.945 34.9433 124.945 32.0908C124.945 29.2383 122.806 28.1686 118.313 27.5268C108.757 26.4571 103.622 23.3193 103.622 15.4036C103.622 7.48787 109.399 3.20911 118.741 3.20911C128.083 3.20911 133.431 7.34525 133.788 15.261H127.512C126.514 11.5527 122.948 9.76988 119.382 9.98382C116.102 10.1264 113.606 11.9806 113.606 14.6905C113.606 17.4003 115.46 18.3274 120.096 18.9692C129.438 20.0389 135 22.8914 135 30.9498C135 39.0081 129.509 44 119.454 44C109.399 44 103.123 38.295 102.624 29.8801H102.553Z" fill="white"/>
<path d="M161 5V30.3536C161 39.116 156.634 44 147.901 44C139.169 44 142.69 43.4254 141 42.6354V36.0994C142.338 36.6022 143.676 36.8895 145.718 36.8895C148.817 36.8895 150.93 35.1657 150.93 31.3591V10.7459H145.507V5H161Z" fill="white"/>
<path d="M167 23.2123C167 11.0561 174.748 3 186.405 3C198.063 3 204.145 9.47368 203.783 19.1842H195.528C195.166 14.8684 191.691 12.1351 186.84 12.207C181.337 12.2789 177.644 16.6667 177.644 23.0684C177.644 29.4702 181.047 35.0088 187.491 34.9368C191.329 34.9368 194.515 32.2035 195.384 28.1754H204C203.638 37.6702 196.759 44 186.84 44C176.92 44 167 35.5842 167 23.0684V23.2123Z" fill="white"/>
<path d="M206.685 0H205.315C205.315 1.8018 203.802 3.31532 202 3.31532V4.68468C203.802 4.68468 205.315 6.1982 205.315 8H206.685C206.685 6.1982 208.198 4.68468 210 4.68468V3.31532C208.198 3.31532 206.685 1.87387 206.685 0Z" fill="white"/>
</g>
<defs>
<clipPath id="clip0_54_2702">
<rect width="210" height="44" fill="white"/>
</clipPath>
</defs>
</svg>
