<svg width="20" height="20" viewBox="0 0 20 20" fill="none" xmlns="http://www.w3.org/2000/svg">
<path d="M14.1667 2.9165H5.83332C3.33332 2.9165 1.66666 4.1665 1.66666 7.08317V12.9165C1.66666 15.8332 3.33332 17.0832 5.83332 17.0832H14.1667C16.6667 17.0832 18.3333 15.8332 18.3333 12.9165V7.08317C18.3333 4.1665 16.6667 2.9165 14.1667 2.9165ZM6.66666 14.7915H4.16666C3.82499 14.7915 3.54166 14.5082 3.54166 14.1665C3.54166 13.8248 3.82499 13.5415 4.16666 13.5415H6.66666C7.00832 13.5415 7.29166 13.8248 7.29166 14.1665C7.29166 14.5082 7.00832 14.7915 6.66666 14.7915ZM9.99999 12.4998C8.61666 12.4998 7.49999 11.3832 7.49999 9.99984C7.49999 8.6165 8.61666 7.49984 9.99999 7.49984C11.3833 7.49984 12.5 8.6165 12.5 9.99984C12.5 11.3832 11.3833 12.4998 9.99999 12.4998ZM15.8333 6.45817H13.3333C12.9917 6.45817 12.7083 6.17484 12.7083 5.83317C12.7083 5.4915 12.9917 5.20817 13.3333 5.20817H15.8333C16.175 5.20817 16.4583 5.4915 16.4583 5.83317C16.4583 6.17484 16.175 6.45817 15.8333 6.45817Z" fill="#2A3183"/>
</svg>
