<svg width="87" height="80" viewBox="0 0 87 80" fill="none" xmlns="http://www.w3.org/2000/svg">
<path d="M11.7953 23.5985C10.9505 26.3352 12.3636 29.2596 15.0328 30.2984C12.296 29.4536 9.3716 30.8667 8.33279 33.5359C9.17757 30.7991 7.76449 27.8747 5.09536 26.8359C7.83209 27.6807 10.7565 26.2676 11.7953 23.5985Z" fill="#D9D6FE"/>
<path d="M15.1029 69.231C15.77 71.0201 17.706 71.9898 19.5382 71.4526C17.7492 72.1197 16.7795 74.0557 17.3166 75.8879C16.6495 74.0989 14.7136 73.1292 12.8813 73.6663C14.6704 72.9992 15.6401 71.0633 15.1029 69.231Z" fill="#D9D6FE"/>
<path d="M76.0244 35.8592C75.8011 37.7554 77.0807 39.5021 78.9561 39.8608C77.0598 39.6374 75.3132 40.9171 74.9545 42.7924C75.1778 40.8962 73.8982 39.1495 72.0228 38.7908C73.9191 39.0142 75.6657 37.7345 76.0244 35.8592Z" fill="#D9D6FE"/>
<path d="M2.83589 47.693C2.54414 48.5996 3.00236 49.5775 3.88569 49.9335C2.97911 49.6418 2.00117 50.1 1.64517 50.9833C1.93692 50.0768 1.4787 49.0988 0.595375 48.7428C1.50195 49.0346 2.4799 48.5763 2.83589 47.693Z" fill="#D9D6FE"/>
<path d="M78.5288 57.7848C78.2371 58.6914 78.6953 59.6693 79.5786 60.0253C78.672 59.7336 77.6941 60.1918 77.3381 61.0751C77.6299 60.1686 77.1716 59.1906 76.2883 58.8346C77.1949 59.1264 78.1728 58.6681 78.5288 57.7848Z" fill="#D9D6FE"/>
<path d="M61.7082 61.9899C61.4164 62.8965 61.8746 63.8744 62.758 64.2304C61.8514 63.9387 60.8734 64.3969 60.5175 65.2802C60.8092 64.3736 60.351 63.3957 59.4677 63.0397C60.3742 63.3314 61.3522 62.8732 61.7082 61.9899Z" fill="#D9D6FE"/>
<path d="M85.2571 10.6872C84.9653 11.5937 85.4236 12.5717 86.3069 12.9277C85.4003 12.6359 84.4224 13.0941 84.0664 13.9775C84.3581 13.0709 83.8999 12.0929 83.0166 11.737C83.9232 12.0287 84.9011 11.5705 85.2571 10.6872Z" fill="#D9D6FE"/>
<path d="M49.9339 20.7809C49.6422 21.6875 50.1004 22.6654 50.9837 23.0214C50.0771 22.7297 49.0992 23.1879 48.7432 24.0712C49.0349 23.1646 48.5767 22.1867 47.6934 21.8307C48.6 22.1225 49.5779 21.6642 49.9339 20.7809Z" fill="#D9D6FE"/>
<path d="M71.8596 25.8684L51.5705 76.7039C50.9856 78.1695 49.3223 78.8839 47.8567 78.299L13.7523 64.6875C12.2867 64.1026 11.574 62.4399 12.1589 60.9743L32.448 10.1388C33.0329 8.67323 34.6945 7.95818 36.1601 8.5431L70.2645 22.1546C71.7301 22.7395 72.4445 24.4028 71.8596 25.8684Z" fill="#8D74D5"/>
<path d="M70.174 25.383L34.0043 10.9473L13.8438 61.4606L50.0136 75.8964L70.174 25.383Z" fill="#F7F7F7"/>
<path d="M50.0137 75.8967L13.8439 61.4609L13.5547 62.1857L49.7244 76.6214L50.0137 75.8967Z" fill="#7B69C9"/>
<path opacity="0.1" d="M60.984 22.846C61.0979 22.4738 60.9095 22.0705 60.5421 21.9239L60.5817 21.9397C60.5817 21.9397 56.2233 19.1437 56.593 17.1348L58.5657 12.192C59.184 10.6429 58.4291 8.88478 56.8798 8.26645C55.3307 7.64819 53.5736 8.40354 52.9552 9.95281L50.9825 14.8956C49.8667 16.6067 44.7807 15.6333 44.7807 15.6333L44.8212 15.6495C44.4529 15.5025 44.0387 15.6653 43.8658 16.0139C43.8564 16.0325 43.8479 16.0515 43.8402 16.0708C43.6855 16.4584 43.8741 16.8972 44.2615 17.0518L59.9824 23.3262C60.3691 23.4806 60.8088 23.2925 60.9634 22.9049C60.9711 22.8856 60.978 22.8659 60.984 22.846ZM56.3432 9.61091C57.2553 9.97496 57.6994 11.0088 57.3353 11.921C56.9713 12.8331 55.9374 13.2771 55.0253 12.9131C54.1142 12.5494 53.6691 11.5152 54.0332 10.603C54.3971 9.69106 55.4319 9.24721 56.3432 9.61091Z" fill="black"/>
<path d="M35.1975 27.8243L32.0211 26.5565C31.4108 26.313 31.1124 25.6182 31.356 25.0079L32.6238 21.8315C32.8673 21.2212 33.5621 20.9228 34.1724 21.1664L37.3488 22.4341C37.9591 22.6777 38.2575 23.3724 38.0139 23.9827L36.7462 27.1592C36.5025 27.7697 35.8079 28.0679 35.1975 27.8243ZM34.0825 21.3915C33.5962 21.1974 33.0427 21.4351 32.8487 21.9214L31.5809 25.0979C31.3868 25.5842 31.6245 26.1377 32.1108 26.3317L35.2873 27.5995C35.7736 27.7936 36.3271 27.5559 36.5211 27.0696L37.7889 23.8931C37.983 23.4068 37.7453 22.8533 37.259 22.6593L34.0825 21.3915Z" fill="#E0E0E0"/>
<path d="M59.6721 34.1864L40.4778 26.5257C40.0919 26.3717 39.904 25.9341 40.058 25.5482C40.212 25.1624 40.6495 24.9744 41.0354 25.1284L60.2298 32.7891C60.6157 32.9431 60.8036 33.3807 60.6496 33.7666C60.4956 34.1524 60.058 34.3404 59.6721 34.1864Z" fill="#E0E0E0"/>
<path d="M53.7303 33.9978L39.7258 28.4085C39.34 28.2545 39.152 27.8169 39.306 27.431C39.46 27.0452 39.8976 26.8572 40.2835 27.0112L54.2879 32.6006C54.6738 32.7546 54.8617 33.1922 54.7077 33.578C54.5537 33.9639 54.1161 34.1518 53.7303 33.9978Z" fill="#E0E0E0"/>
<path d="M32.0158 35.7964L28.8394 34.5287C28.2902 34.3095 28.0227 33.6867 28.2419 33.1375L29.5097 29.9611C29.7288 29.4119 30.3516 29.1445 30.9008 29.3636L34.0772 30.6314C34.6264 30.8506 34.8939 31.4734 34.6747 32.0225L33.4069 35.1989C33.1878 35.7481 32.565 36.0156 32.0158 35.7964Z" stroke="#CCC1E0" stroke-width="0.242381" stroke-miterlimit="10"/>
<path d="M56.4457 42.2704L37.2513 34.6097C36.8655 34.4557 36.6776 34.0181 36.8316 33.6322C36.9856 33.2464 37.4231 33.0584 37.809 33.2124L57.0034 40.8731C57.3892 41.0271 57.5772 41.4647 57.4232 41.8506C57.2692 42.2364 56.8316 42.4244 56.4457 42.2704Z" fill="#CCC1E0"/>
<path d="M44.1742 39.5576L36.4992 36.4944C36.1133 36.3404 35.9254 35.9028 36.0794 35.517C36.2334 35.1311 36.671 34.9432 37.0569 35.0972L44.7318 38.1603C45.1177 38.3143 45.3056 38.7519 45.1516 39.1378C44.9976 39.5237 44.56 39.7116 44.1742 39.5576Z" fill="#CCC1E0"/>
<path d="M28.7441 43.9924L25.5677 42.7247C24.9574 42.4811 24.659 41.7864 24.9026 41.176L26.1704 37.9994C26.414 37.3891 27.1087 37.0908 27.719 37.3343L30.8955 38.6021C31.5058 38.8457 31.8042 39.5404 31.5606 40.1507L30.2928 43.3273C30.0493 43.9375 29.3545 44.236 28.7441 43.9924ZM27.6293 37.5593C27.143 37.3652 26.5895 37.6029 26.3954 38.0891L25.1276 41.2657C24.9335 41.752 25.1713 42.3053 25.6576 42.4994L28.8341 43.7671C29.3204 43.9612 29.8738 43.7237 30.0679 43.2374L31.3357 40.0608C31.5297 39.5746 31.292 39.0211 30.8057 38.827L27.6293 37.5593Z" fill="#E0E0E0"/>
<path d="M53.2188 50.3543L34.0245 42.6937C33.6386 42.5396 33.4507 42.1021 33.6047 41.7162C33.7587 41.3303 34.1962 41.1424 34.5821 41.2964L53.7765 48.9571C54.1623 49.1111 54.3503 49.5487 54.1963 49.9345C54.0423 50.3202 53.6047 50.5083 53.2188 50.3543Z" fill="#E0E0E0"/>
<path d="M42.687 48.334L33.2721 44.5765C32.8863 44.4225 32.6983 43.9849 32.8523 43.599C33.0063 43.2131 33.4439 43.0252 33.8298 43.1792L43.2446 46.9368C43.6305 47.0908 43.8184 47.5284 43.6644 47.9142C43.5107 48.3 43.0728 48.488 42.687 48.334Z" fill="#E0E0E0"/>
<path d="M25.5176 52.0784L22.3411 50.8106C21.7308 50.567 21.4325 49.8723 21.676 49.262L22.9439 46.0854C23.1874 45.4751 23.8822 45.1767 24.4925 45.4203L27.6689 46.688C28.2792 46.9316 28.5776 47.6263 28.334 48.2367L27.0662 51.4133C26.8227 52.0234 26.1279 52.3219 25.5176 52.0784ZM24.4027 45.6452C23.9164 45.4511 23.363 45.6887 23.1689 46.175L21.9011 49.3516C21.707 49.8379 21.9448 50.3912 22.4311 50.5853L25.6075 51.8531C26.0938 52.0471 26.6472 51.8096 26.8413 51.3233L28.1091 48.1467C28.3032 47.6604 28.0654 47.1071 27.5791 46.913L24.4027 45.6452Z" fill="#E0E0E0"/>
<path d="M49.9923 58.4403L30.7979 50.7796C30.412 50.6256 30.2241 50.188 30.3781 49.8021C30.5321 49.4163 30.9697 49.2283 31.3555 49.3823L50.5499 57.043C50.9358 57.197 51.1237 57.6346 50.9697 58.0205C50.8158 58.4062 50.3781 58.5943 49.9923 58.4403Z" fill="#E0E0E0"/>
<path d="M48.6642 60.0931L30.046 52.6624C29.6601 52.5084 29.4722 52.0708 29.6262 51.685C29.7802 51.2991 30.2178 51.1112 30.6036 51.2652L49.222 58.696C49.6079 58.85 49.7958 59.2876 49.6418 59.6734C49.4878 60.0593 49.0501 60.2471 48.6642 60.0931Z" fill="#E0E0E0"/>
<path d="M22.2909 60.1622L19.1144 58.8944C18.5041 58.6508 18.2058 57.9561 18.4493 57.3458L19.7171 54.1694C19.9607 53.5591 20.6554 53.2607 21.2657 53.5043L24.4421 54.772C25.0525 55.0156 25.3508 55.7103 25.1072 56.3206L23.8395 59.4971C23.596 60.1072 22.9012 60.4058 22.2909 60.1622ZM21.1759 53.7292C20.6896 53.5351 20.1362 53.7727 19.9421 54.259L18.6744 57.4354C18.4803 57.9217 18.7181 58.475 19.2044 58.6691L22.3808 59.9369C22.8671 60.131 23.4205 59.8934 23.6146 59.4071L24.8824 56.2307C25.0764 55.7444 24.8387 55.1911 24.3524 54.997L21.1759 53.7292Z" fill="#E0E0E0"/>
<path d="M46.7655 66.5243L27.5711 58.8636C27.1853 58.7096 26.9973 58.272 27.1513 57.8861C27.3054 57.5003 27.7429 57.3123 28.1288 57.4663L47.3232 65.127C47.709 65.281 47.897 65.7186 47.743 66.1045C47.589 66.4903 47.1514 66.6783 46.7655 66.5243Z" fill="#E0E0E0"/>
<path d="M42.4684 66.9921L26.8193 60.7464C26.4334 60.5924 26.2455 60.1548 26.3995 59.7689C26.5535 59.3831 26.991 59.1951 27.3769 59.3491L43.0261 65.5949C43.4119 65.7489 43.5999 66.1865 43.4459 66.5723C43.292 66.9583 42.8543 67.1461 42.4684 66.9921Z" fill="#E0E0E0"/>
<path d="M61.0288 22.7326C61.1427 22.3604 60.9543 21.9571 60.5869 21.8105L60.6265 21.8263C60.6265 21.8263 56.2681 19.0304 56.6378 17.0215L58.6105 12.0788C59.2287 10.5297 58.4738 8.77157 56.9245 8.15324C55.3754 7.53497 53.6183 8.29033 53 9.8396L51.0272 14.7824C49.9114 16.4937 44.8254 15.5201 44.8254 15.5201L44.8659 15.5363C44.4977 15.3893 44.0834 15.5519 43.9106 15.9007C43.9012 15.9193 43.8924 15.9382 43.8847 15.9577C43.73 16.3453 43.9186 16.7841 44.306 16.9387L60.0269 23.2131C60.4134 23.3674 60.8533 23.1792 61.0079 22.7918C61.0161 22.7723 61.023 22.7526 61.0288 22.7326ZM56.3881 9.49777C57.3002 9.86181 57.7443 10.8957 57.3802 11.8078C57.0162 12.7199 55.9823 13.164 55.0702 12.7999C54.1591 12.4363 53.714 11.402 54.0781 10.4899C54.4421 9.57774 55.4768 9.13407 56.3881 9.49777Z" fill="#FFB100"/>
<path d="M61.0085 22.7926C60.8538 23.1801 60.414 23.3682 60.0274 23.2139L44.3065 16.9395C43.919 16.7848 43.7306 16.3459 43.8852 15.9585C43.8929 15.9392 43.9015 15.9202 43.9111 15.9015L61.0293 22.7335C61.023 22.7536 61.0162 22.7733 61.0085 22.7926Z" fill="#F5973A"/>
</svg>
