<svg id="Layer_1" data-name="Layer 1" xmlns="http://www.w3.org/2000/svg" viewBox="0 0 100 100"><defs><style>.cls-1{fill:none;}.cls-2{fill:#204c9a;}</style></defs><g id="Tasks"><rect class="cls-1" width="100" height="100"/><g id="Tasks-2" data-name="Tasks"><path class="cls-2" d="M23.19,4H77l.67.19A34.27,34.27,0,0,1,83,5.77C91,9.56,95.11,16,95.17,24.83c.09,11.66,0,23.31,0,35,0,.27,0,.54,0,1A25.8,25.8,0,0,0,77.27,50.77c.87-.06,1.7,0,2.54-.06,1.22,0,2-.65,2-1.62s-.79-1.65-2-1.69H58.42c-2.6,0-5.21,0-7.8,0a2.72,2.72,0,0,0-1.74.67,2,2,0,0,0-.23,1.63c.23.84,1,1,1.81,1H73.41c-10.63,1.44-18.22,6.77-21.79,16.83s-.88,18.95,6.44,26.62l-.47,0c-10.73,0-21.46,0-32.19,0a19.8,19.8,0,0,1-13.5-5.11A20.42,20.42,0,0,1,5,73.07q0-24,0-48a31.21,31.21,0,0,1,.27-3.74A20.23,20.23,0,0,1,20.08,4.71C21.11,4.45,22.15,4.23,23.19,4ZM65.12,27.33H76.67c1.16,0,2.33,0,3.49,0a1.6,1.6,0,0,0,1.61-1.59,1.64,1.64,0,0,0-1.56-1.65,4.87,4.87,0,0,0-.54,0H50.56a4.18,4.18,0,0,0-.71,0,1.63,1.63,0,0,0-1.38,1.63,1.61,1.61,0,0,0,1.42,1.58,6.76,6.76,0,0,0,.9,0ZM26.59,28.47c-2.05-1.54-4-3-6-4.45a2.69,2.69,0,0,0-1.77-.55,2,2,0,0,0-1.17,1.16,1.57,1.57,0,0,0,.77,1.84c2.39,1.79,4.77,3.59,7.17,5.37a1.7,1.7,0,0,0,2.66-.28q5.54-6.42,11-12.87a1.67,1.67,0,1,0-2.51-2.12c-1.11,1.28-2.21,2.58-3.32,3.87C31.2,23.09,28.92,25.74,26.59,28.47Zm0,23.34L26,51.42C24.19,50,22.37,48.64,20.5,47.3A2.22,2.22,0,0,0,19,46.81,2.25,2.25,0,0,0,17.68,48a1.61,1.61,0,0,0,.79,1.92l7,5.2c1.26,1,2,.85,3.06-.38l8.46-9.86c.89-1.05,1.8-2.08,2.64-3.16a1.48,1.48,0,0,0,0-1.91,1.45,1.45,0,0,0-1.74-.57,2.83,2.83,0,0,0-1.11.85c-2.06,2.36-4.09,4.75-6.13,7.13Zm0,25-.77-.55c-1.77-1.33-3.51-2.7-5.32-4a2.67,2.67,0,0,0-1.79-.43c-.42.08-.89.69-1.06,1.16a1.6,1.6,0,0,0,.81,1.83c2.39,1.79,4.77,3.59,7.17,5.37a1.7,1.7,0,0,0,2.66-.34q5.52-6.42,11-12.87a2.31,2.31,0,0,0,.53-1A1.47,1.47,0,0,0,39,64.35a1.67,1.67,0,0,0-2.21.59c-1.86,2.15-3.7,4.31-5.54,6.46Z"/><path class="cls-1" d="M23.19,4c-1,.23-2.08.45-3.11.71A20.23,20.23,0,0,0,5.26,21.36,31.21,31.21,0,0,0,5,25.1q0,24,0,48a20.42,20.42,0,0,0,6.92,16,19.8,19.8,0,0,0,13.5,5.11c10.73,0,21.46,0,32.19,0l.47,0c-7.32-7.67-10-16.54-6.44-26.62S62.78,52.15,73.41,50.71H50.46c-.79,0-1.58-.14-1.81-1a2,2,0,0,1,.23-1.63,2.72,2.72,0,0,1,1.74-.67c2.59-.07,5.2,0,7.8,0H79.75c1.24,0,2,.71,2,1.69s-.75,1.59-2,1.62c-.84,0-1.67,0-2.54.06A25.8,25.8,0,0,1,95.14,60.84c0-.5,0-.77,0-1,0-11.66.07-23.31,0-35C95.11,16,91,9.56,83,5.77a34.27,34.27,0,0,0-5.37-1.58L77,4H96V96H4V4Zm52,51.73a20,20,0,1,0,20,20.1A20.08,20.08,0,0,0,75.15,55.73Z"/><path class="cls-1" d="M65.12,27.33H50.79a6.76,6.76,0,0,1-.9,0,1.61,1.61,0,0,1-1.42-1.58,1.63,1.63,0,0,1,1.38-1.63,4.18,4.18,0,0,1,.71,0H79.67a4.87,4.87,0,0,1,.54,0,1.64,1.64,0,0,1,1.56,1.65,1.6,1.6,0,0,1-1.61,1.59c-1.16,0-2.33,0-3.49,0Z"/><path class="cls-1" d="M26.59,28.47c2.33-2.73,4.61-5.38,6.88-8,1.11-1.29,2.21-2.59,3.32-3.87a1.67,1.67,0,1,1,2.51,2.12q-5.5,6.45-11,12.87a1.7,1.7,0,0,1-2.66.28c-2.4-1.78-4.78-3.58-7.17-5.37a1.57,1.57,0,0,1-.77-1.84,2,2,0,0,1,1.17-1.16,2.69,2.69,0,0,1,1.77.55C22.61,25.43,24.54,26.93,26.59,28.47Z"/><path class="cls-1" d="M26.61,51.81l4-4.63c2-2.38,4.07-4.77,6.13-7.13a2.83,2.83,0,0,1,1.11-.85,1.45,1.45,0,0,1,1.74.57,1.48,1.48,0,0,1,0,1.91c-.84,1.08-1.75,2.11-2.64,3.16L28.48,54.7c-1.05,1.23-1.8,1.33-3.06.38l-7-5.2A1.61,1.61,0,0,1,17.68,48,2.25,2.25,0,0,1,19,46.81a2.22,2.22,0,0,1,1.53.49C22.37,48.64,24.19,50,26,51.42Z"/><path class="cls-1" d="M26.6,76.86l4.69-5.46c1.84-2.15,3.68-4.31,5.54-6.46A1.67,1.67,0,0,1,39,64.35a1.47,1.47,0,0,1,.81,1.72,2.31,2.31,0,0,1-.53,1q-5.51,6.45-11,12.87a1.7,1.7,0,0,1-2.66.34c-2.4-1.78-4.78-3.58-7.17-5.37a1.6,1.6,0,0,1-.81-1.83c.17-.47.64-1.08,1.06-1.16a2.67,2.67,0,0,1,1.79.43c1.81,1.26,3.55,2.63,5.32,4Z"/><path class="cls-2" d="M75.15,55.73a20,20,0,1,1-20,19.89A20.12,20.12,0,0,1,75.15,55.73ZM91.8,75.81A16.66,16.66,0,1,0,75,92.43,16.63,16.63,0,0,0,91.8,75.81Z"/><path class="cls-1" d="M91.8,75.81A16.66,16.66,0,1,1,75.2,59.13,16.65,16.65,0,0,1,91.8,75.81Zm-15-1.69V66.05c0-1.18-.64-1.93-1.64-2a1.76,1.76,0,0,0-1.74,2c0,3.13,0,6.27,0,9.4a1.8,1.8,0,0,0,2,2c3.16,0,6.33,0,9.49,0a2.43,2.43,0,0,0,1.44-.57,1.4,1.4,0,0,0,.35-1.72A1.66,1.66,0,0,0,85,74.12Z"/><path class="cls-2" d="M76.81,74.12H85a1.66,1.66,0,0,1,1.69,1.06,1.4,1.4,0,0,1-.35,1.72,2.43,2.43,0,0,1-1.44.57c-3.16,0-6.33,0-9.49,0a1.8,1.8,0,0,1-2-2c0-3.13,0-6.27,0-9.4a1.76,1.76,0,0,1,1.74-2c1,0,1.63.78,1.64,2Z"/></g></g></svg>