<svg width="16" height="16" viewBox="0 0 16 16" fill="none" xmlns="http://www.w3.org/2000/svg">
<path d="M7.99998 1.33398C4.31998 1.33398 1.33331 4.32065 1.33331 8.00065C1.33331 11.6807 4.31998 14.6673 7.99998 14.6673C11.68 14.6673 14.6666 11.6807 14.6666 8.00065C14.6666 4.32065 11.68 1.33398 7.99998 1.33398ZM5.68665 8.98065C5.87998 9.17399 5.87998 9.49398 5.68665 9.68732C5.58665 9.78732 5.45998 9.83398 5.33331 9.83398C5.20665 9.83398 5.07998 9.78732 4.97998 9.68732L3.64665 8.35398C3.45331 8.16065 3.45331 7.84065 3.64665 7.64732L4.97998 6.31398C5.17331 6.12065 5.49331 6.12065 5.68665 6.31398C5.87998 6.50732 5.87998 6.82732 5.68665 7.02065L4.70665 8.00065L5.68665 8.98065ZM9.12665 6.64065L7.79331 9.75398C7.71331 9.94065 7.52665 10.054 7.33331 10.054C7.26665 10.054 7.19998 10.0407 7.13998 10.014C6.88665 9.90732 6.76665 9.61398 6.87998 9.35398L8.21331 6.24065C8.31998 5.98732 8.61331 5.86732 8.86665 5.98065C9.11998 6.09398 9.23331 6.38732 9.12665 6.64065ZM12.3533 8.35398L11.02 9.68732C10.92 9.78732 10.7933 9.83398 10.6666 9.83398C10.54 9.83398 10.4133 9.78732 10.3133 9.68732C10.12 9.49398 10.12 9.17399 10.3133 8.98065L11.2933 8.00065L10.3133 7.02065C10.12 6.82732 10.12 6.50732 10.3133 6.31398C10.5066 6.12065 10.8266 6.12065 11.02 6.31398L12.3533 7.64732C12.5466 7.84065 12.5466 8.16065 12.3533 8.35398Z" fill="#7A5AF8"/>
</svg>
