<svg width="20" height="20" viewBox="0 0 20 20" fill="none" xmlns="http://www.w3.org/2000/svg">
<path d="M12.7168 18.5422H7.28344C3.19177 18.5422 1.44177 16.7922 1.44177 12.7005V12.5922C1.44177 8.89222 2.90011 7.10888 6.16677 6.80055C6.50011 6.77555 6.81677 7.02555 6.85011 7.36722C6.88344 7.70888 6.63344 8.01722 6.28344 8.05055C3.66677 8.29222 2.69177 9.52555 2.69177 12.6005V12.7089C2.69177 16.1005 3.89177 17.3005 7.28344 17.3005H12.7168C16.1084 17.3005 17.3084 16.1005 17.3084 12.7089V12.6005C17.3084 9.50888 16.3168 8.27555 13.6501 8.05055C13.3084 8.01722 13.0501 7.71722 13.0834 7.37555C13.1168 7.03388 13.4084 6.77555 13.7584 6.80888C17.0751 7.09222 18.5584 8.88388 18.5584 12.6089V12.7172C18.5584 16.7922 16.8084 18.5422 12.7168 18.5422Z" fill="#2A3183"/>
<path d="M10 13.1259C9.65833 13.1259 9.375 12.8426 9.375 12.5009V3.01758C9.375 2.67591 9.65833 2.39258 10 2.39258C10.3417 2.39258 10.625 2.67591 10.625 3.01758V12.5009C10.625 12.8426 10.3417 13.1259 10 13.1259Z" fill="#2A3183"/>
<path d="M12.7916 5.50052C12.6332 5.50052 12.4749 5.44219 12.3499 5.31719L9.99991 2.96719L7.64991 5.31719C7.40824 5.55885 7.00824 5.55885 6.76658 5.31719C6.52491 5.07552 6.52491 4.67552 6.76658 4.43385L9.55824 1.64219C9.79991 1.40052 10.1999 1.40052 10.4416 1.64219L13.2332 4.43385C13.4749 4.67552 13.4749 5.07552 13.2332 5.31719C13.1166 5.44219 12.9499 5.50052 12.7916 5.50052Z" fill="#2A3183"/>
</svg>
