<svg width="14" height="15" viewBox="0 0 14 15" fill="none" xmlns="http://www.w3.org/2000/svg">
<path d="M9.66667 14.1666H4.33333C1.9 14.1666 0.5 12.7666 0.5 10.3333V4.66659C0.5 2.23325 1.9 0.833252 4.33333 0.833252H9.66667C12.1 0.833252 13.5 2.23325 13.5 4.66659V10.3333C13.5 12.7666 12.1 14.1666 9.66667 14.1666ZM4.33333 1.83325C2.42667 1.83325 1.5 2.75992 1.5 4.66659V10.3333C1.5 12.2399 2.42667 13.1666 4.33333 13.1666H9.66667C11.5733 13.1666 12.5 12.2399 12.5 10.3333V4.66659C12.5 2.75992 11.5733 1.83325 9.66667 1.83325H4.33333Z" fill="#2A3183"/>
</svg>
